<?xml version="1.0" encoding="UTF-8"?>
<!DOCTYPE svg PUBLIC "-//W3C//DTD SVG 1.1//EN" "http://www.w3.org/Graphics/SVG/1.1/DTD/svg11.dtd">
<!-- Creator: CorelDRAW 2021 (64-Bit) -->
<svg xmlns="http://www.w3.org/2000/svg" xml:space="preserve" width="2970.2mm" height="1143.36mm" version="1.1" style="shape-rendering:geometricPrecision; text-rendering:geometricPrecision; image-rendering:optimizeQuality; fill-rule:evenodd; clip-rule:evenodd"
viewBox="0 0 946 364"
 xmlns:xlink="http://www.w3.org/1999/xlink"
 xmlns:xodm="http://www.corel.com/coreldraw/odm/2003">
 <defs>
  <style type="text/css">
   <![CDATA[
    .str0 {stroke:#2B2A29;stroke-width:0;stroke-miterlimit:22.9256}
    .fil0 {fill:none}
   ]]>
  </style>
 </defs>
 <g id="Слой_x0020_1">
  <metadata id="CorelCorpID_0Corel-Layer"/>
  <polygon class="fil0 str0" points="924,363 924,363 924,267 912,267 912,363 "/>
  <path class="fil0 str0" d="M869 317l0 0 6 0c14,0 16,3 16,17 0,12 0,18 -12,18l-10 0 0 -35zm-12 -50l0 0 0 96 22 0c6,0 15,-1 19,-6 5,-6 5,-15 5,-22 0,-10 0,-16 -5,-22 -3,-4 -7,-6 -16,-6l-13 0 0 -39 -12 0z"/>
  <path class="fil0 str0" d="M805 338l0 0 -4 0c-12,0 -14,-5 -14,-14l0 -19c0,-9 2,-14 14,-14l4 0 0 46zm12 -46l0 0 4 0c12,0 14,5 14,14l0 19c0,9 -2,14 -14,14l-4 0 0 -46zm-12 -26l0 0 0 15 -6 0c-14,0 -24,6 -24,25l0 19c0,20 10,24 24,24l6 0 0 16 12 0 0 -16 6 0c14,0 24,-4 24,-24l0 -19c0,-19 -10,-25 -24,-25l-6 0 0 -15 -12 0z"/>
  <path class="fil0 str0" d="M753 334l0 0 -18 0 9 -49 9 49zm18 29l0 0 -21 -96 -12 0 -21 96 12 0 3 -18 22 0 3 18 12 0z"/>
  <path class="fil0 str0" d="M667 267l0 0 0 96 12 0 0 -45 8 0c7,0 9,4 9,14l0 15c0,9 3,16 13,16l5 0 0 -11c-4,0 -6,-2 -6,-7l0 -16c0,-10 -3,-15 -10,-17 6,-3 8,-7 8,-16l0 -11c0,-5 1,-7 6,-7l0 -11 -5 0c-10,0 -13,7 -13,16l0 10c0,11 -2,14 -9,14l-7 0 0 -40 -12 0z"/>
  <polygon class="fil0 str0" points="653,363 653,363 653,267 641,267 641,352 626,352 626,267 614,267 614,352 599,352 599,267 587,267 587,363 "/>
  <polygon class="fil0 str0" points="468,351 468,282 460,282 460,288 443,326 443,282 434,282 434,351 443,351 443,343 460,306 460,351 "/>
  <polygon class="fil0 str0" points="327,363 327,363 327,264 315,264 315,273 291,327 291,264 279,264 279,363 291,363 291,352 315,298 315,363 "/>
  <polygon class="fil0 str0" points="264,363 264,363 264,264 252,264 252,306 229,306 229,264 217,264 217,363 229,363 229,316 252,316 252,363 "/>
  <polygon class="fil0 str0" points="210,363 210,363 189,309 206,264 192,264 181,302 169,264 156,264 173,309 154,363 167,363 181,320 197,363 "/>
  <path class="fil0 str0" d="M125 321l0 0 -16 -57 -13 0 23 74c-2,10 -3,14 -9,14l-4 0 0 11 4 0c10,0 14,-3 18,-17l23 -82 -13 0 -13 57z"/>
  <path class="fil0 str0" d="M45 264l0 99 12 0 0 -47 8 0c7,0 10,4 10,15l0 15c0,10 3,17 13,17l5 0 0 -11c-5,0 -6,-2 -6,-7l0 -16c0,-10 -3,-15 -10,-18 6,-3 9,-8 9,-17l0 -11c0,-5 1,-7 6,-7l0 -11 -5 0c-10,0 -13,7 -13,17l0 10c0,11 -2,15 -10,15l-7 0 0 -41 -12 0z"/>
  <path class="fil0 str0" d="M871 51c-11,10 -30,15 -41,14 -26,-1 -28,-18 -20,-27 17,-19 73,-12 73,-12 0,0 -1,14 -12,24zm31 32c-5,-22 8,-66 8,-66 0,0 -51,-8 -91,-1 -40,7 -61,41 -31,56 39,20 79,-5 79,-5 0,0 -6,14 -23,30 -48,46 -72,-4 -85,-4 -13,0 -24,27 -35,8 -6,-11 -12,-31 -24,-26 -13,5 -52,50 -62,36 -11,-14 26,-50 26,-50 0,0 -14,-11 -25,-5 -11,7 -37,30 -36,50 -4,3 -9,6 -14,7 -20,5 -35,-7 -37,-28 -1,-21 -8,-32 -23,-30 -15,2 -38,25 -38,25 0,0 16,-25 22,-34 6,-9 -12,-12 -19,-2 -7,10 -12,17 -28,49 -3,2 -7,4 -11,6 -12,5 -37,12 -43,4 -6,-7 6,-19 8,-24 3,-5 -3,-7 -9,-6 -4,1 -21,13 -33,20 -13,7 -42,14 -36,-5 4,-15 27,-27 46,-30 24,-5 39,8 40,6 9,-19 -23,-20 -23,-20 -22,0 -47,7 -68,19 -20,11 -39,33 -36,47 -3,1 -6,2 -9,3 -26,6 -46,-10 -48,-38 -1,-28 -9,-42 -29,-40 -20,3 -56,37 -56,37 0,0 -9,-37 -14,-55 -9,-31 -30,-14 -30,-14 -20,12 -60,65 -85,98 -18,22 -30,32 -30,32 0,0 35,4 52,-12 16,-16 54,-91 68,-88 13,3 2,111 29,82 30,-31 43,-43 56,-41 13,2 15,31 33,43 18,12 44,13 65,0 10,14 46,5 58,0 13,-5 34,-21 34,-21 0,0 -6,24 8,26 13,2 41,-12 59,-22 -5,10 -9,20 -13,31 -17,51 -20,85 -20,91 1,6 10,9 13,-3 4,-12 19,-78 38,-105 19,-27 31,-32 41,-31 10,1 12,23 26,33 14,9 34,9 50,-1 2,-1 4,-3 6,-4 7,16 34,19 53,11 20,-8 38,-27 38,-27 0,0 8,27 31,23 16,-3 23,-11 33,-11 10,0 38,37 95,1 19,-12 25,-22 25,-22 0,0 9,36 31,45 12,5 38,-14 38,-14 0,0 -36,-5 -44,-37z"/>
 </g>
</svg>
