<?xml version="1.0" encoding="UTF-8"?>
<!DOCTYPE svg PUBLIC "-//W3C//DTD SVG 1.1//EN" "http://www.w3.org/Graphics/SVG/1.1/DTD/svg11.dtd">
<!-- Creator: CorelDRAW 2021 (64-Bit) -->
<svg xmlns="http://www.w3.org/2000/svg" xml:space="preserve" width="210mm" height="297mm" version="1.1" style="shape-rendering:geometricPrecision; text-rendering:geometricPrecision; image-rendering:optimizeQuality; fill-rule:evenodd; clip-rule:evenodd"
viewBox="0 0 210 297"
 xmlns:xlink="http://www.w3.org/1999/xlink"
 xmlns:xodm="http://www.corel.com/coreldraw/odm/2003">
 <defs>
  <style type="text/css">
   <![CDATA[
    .str0 {stroke:#2B2A29;stroke-width:0.2;stroke-miterlimit:22.9256}
    .fil1 {fill:#FEFEFE}
    .fil0 {fill:#FEFEFE;fill-rule:nonzero}
   ]]>
  </style>
 </defs>
 <g id="Слой_x0020_1">
  <metadata id="CorelCorpID_0Corel-Layer"/>
  <path class="fil0 str0" d="M-1083.967 -376.6445l-16.3552 -23.4862c16.7503,-12.9413 36.6611,-19.4919 59.7323,-19.6517 13.7479,-0.1597 25.0464,1.9572 33.8957,6.3509 8.8492,4.3936 15.3676,9.9855 19.5552,16.7758 4.1876,6.7902 6.6764,13.86 7.4665,21.2095 0.4741,5.9114 -0.158,11.7031 -1.8962,17.3749 -1.7382,5.6719 -4.9382,10.5848 -9.5999,14.7388 -4.6616,4.154 -10.5479,6.8701 -17.6589,8.1483l0 2.6362c9.4813,0.7989 17.6194,4.5534 24.4144,11.2638 6.7949,6.7103 10.1924,15.5775 10.1924,26.6017 0,9.1068 -2.5283,17.6944 -7.5851,25.7629 -5.0567,8.0683 -12.7208,14.6988 -22.9922,19.8913 -10.2714,5.1925 -22.7551,8.0284 -37.4511,8.5077 -23.0712,0.6391 -45.0363,-7.6689 -65.8952,-24.9241l17.7774 -23.0068c0.7901,0.1598 1.4618,0.4792 2.0149,0.9586 0.553,0.4793 1.1456,0.9586 1.7777,1.4379 1.4222,0.7989 3.2,1.9173 5.3332,3.3552 2.1333,1.4379 4.6221,2.9557 7.4666,4.5534 10.7455,5.4322 21.4119,7.5092 31.9994,6.231 8.3752,-1.1183 14.8936,-4.3537 19.5552,-9.706 4.6617,-5.3523 6.7555,-11.3037 6.2814,-17.8543 -0.4741,-12.9413 -9.0863,-19.412 -25.8366,-19.412l-16.3552 0 0 -28.7586 13.5108 0c10.2714,0 17.1849,-2.3566 20.7404,-7.0698 3.5555,-4.7132 4.8592,-9.7859 3.911,-15.2181 -0.7901,-5.592 -3.6345,-10.1853 -8.5331,-13.7801 -4.8987,-3.5948 -11.3776,-5.3923 -19.4368,-5.3923 -10.7454,0 -22.7551,4.154 -36.029,12.4621z"/>
  <path class="fil0 str0" d="M1390.064 -240.5206c-22.9131,0 -40.4141,-5.7117 -52.5028,-17.1353 -20.271,-19.1556 -28.7995,-45.0057 -28.7995,-72.4956 0,-27.4898 8.5286,-53.34 28.7995,-72.4956 12.0887,-11.4235 29.5897,-17.1353 52.5028,-17.1353 22.9132,0 40.4142,5.7118 52.5028,17.1353 20.271,19.1556 28.7995,45.0058 28.7995,72.4956 0,27.4899 -8.5284,53.34 -28.7995,72.4956 -12.0886,11.4236 -29.5896,17.1353 -52.5028,17.1353z"/>
  <path class="fil0 str0" d="M1351.9017 -330.1515c0,16.6161 2.8049,30.9155 8.4147,42.8983 5.6097,11.9827 15.5256,17.974 29.7476,17.974 14.38,0 24.3354,-5.9913 29.8661,-17.974 5.5308,-11.9828 8.2962,-26.2822 8.2962,-42.8983 0,-16.7758 -2.7654,-31.1152 -8.2962,-43.018 -5.5307,-11.9029 -15.4861,-17.8543 -29.8661,-17.8543 -14.222,0 -24.1379,5.9914 -29.7476,17.9741 -5.6098,11.9828 -8.4147,26.2821 -8.4147,42.8982z"/>
  <path class="fil0 str0" d="M879.9693 -240.5206c-22.9132,0 -40.4142,-5.7117 -52.5028,-17.1353 -20.271,-19.1556 -28.7995,-45.0057 -28.7995,-72.4956 0,-27.4898 8.5285,-53.34 28.7995,-72.4956 12.0886,-11.4235 29.5896,-17.1353 52.5028,-17.1353 22.9131,0 40.4141,5.7118 52.5028,17.1353 20.2709,19.1556 28.7995,45.0058 28.7995,72.4956 0,27.4899 -8.5285,53.34 -28.7995,72.4956 -12.0887,11.4236 -29.5897,17.1353 -52.5028,17.1353z"/>
  <path class="fil0 str0" d="M841.8069 -330.1515c0,16.6161 2.805,30.9155 8.4147,42.8983 5.6098,11.9827 15.5257,17.974 29.7477,17.974 14.3799,0 24.3353,-5.9913 29.8661,-17.974 5.5308,-11.9828 8.2962,-26.2822 8.2962,-42.8983 0,-16.7758 -2.7654,-31.1152 -8.2962,-43.018 -5.5308,-11.9029 -15.4862,-17.8543 -29.8661,-17.8543 -14.222,0 -24.1379,5.9914 -29.7477,17.9741 -5.6097,11.9828 -8.4147,26.2821 -8.4147,42.8982z"/>
  <path class="fil0 str0" d="M-532.9839 -240.5206c-22.9132,0 -40.4142,-5.7117 -52.5028,-17.1353 -20.271,-19.1556 -28.7995,-45.0057 -28.7995,-72.4956 0,-27.4898 8.5285,-53.34 28.7995,-72.4956 12.0886,-11.4235 29.5896,-17.1353 52.5028,-17.1353 22.9131,0 40.4141,5.7118 52.5028,17.1353 20.2709,19.1556 28.7995,45.0058 28.7995,72.4956 0,27.4899 -8.5285,53.34 -28.7995,72.4956 -12.0887,11.4236 -29.5897,17.1353 -52.5028,17.1353z"/>
  <path class="fil0 str0" d="M-571.1463 -330.1515c0,16.6161 2.805,30.9155 8.4147,42.8983 5.6098,11.9827 15.5257,17.974 29.7477,17.974 14.3799,0 24.3353,-5.9913 29.8661,-17.974 5.5308,-11.9828 8.2962,-26.2822 8.2962,-42.8983 0,-16.7758 -2.7654,-31.1152 -8.2962,-43.018 -5.5308,-11.9029 -15.4862,-17.8543 -29.8661,-17.8543 -14.222,0 -24.1379,5.9914 -29.7477,17.9741 -5.6097,11.9828 -8.4147,26.2821 -8.4147,42.8982z"/>
  <path class="fil0 str0" d="M-875.378 -240.5206c-22.9131,0 -40.4141,-5.7117 -52.5028,-17.1353 -20.271,-19.1556 -28.7995,-45.0057 -28.7995,-72.4956 0,-27.4898 8.5286,-53.34 28.7995,-72.4956 12.0887,-11.4235 29.5897,-17.1353 52.5028,-17.1353 22.9132,0 40.4142,5.7118 52.5028,17.1353 20.271,19.1556 28.7995,45.0058 28.7995,72.4956 0,27.4899 -8.5284,53.34 -28.7995,72.4956 -12.0886,11.4236 -29.5896,17.1353 -52.5028,17.1353z"/>
  <path class="fil0 str0" d="M-913.5403 -330.1515c0,16.6161 2.8049,30.9155 8.4147,42.8983 5.6097,11.9827 15.5256,17.974 29.7476,17.974 14.38,0 24.3354,-5.9913 29.8661,-17.974 5.5308,-11.9828 8.2962,-26.2822 8.2962,-42.8983 0,-16.7758 -2.7654,-31.1152 -8.2962,-43.018 -5.5307,-11.9029 -15.4861,-17.8543 -29.8661,-17.8543 -14.222,0 -24.1379,5.9914 -29.7476,17.9741 -5.6098,11.9828 -8.4147,26.2821 -8.4147,42.8982z"/>
  <path class="fil0 str0" d="M-679.1148 -386.9497l-31.0513 0c0,24.1253 -1.1457,46.8925 -3.4369,68.3017 -2.2914,21.4091 -7.4271,39.8226 -15.4072,55.2404 -7.9801,15.4178 -19.7132,23.0468 -35.1994,22.887 -5.0567,0 -9.7973,-1.0385 -14.2219,-3.1155l0 -28.2793c9.1652,0.4793 16.0392,-4.3537 20.6218,-14.4991 4.5827,-10.1453 7.506,-21.8086 8.7703,-34.9895 1.2642,-13.1811 2.0542,-29.1181 2.3703,-47.8112 0.316,-3.6747 0.4741,-9.027 0.4741,-16.0569 0,-3.0356 0.0394,-5.8316 0.1184,-8.3879 0.0791,-2.5563 0.1186,-5.8317 0.1186,-9.8259l0 -12.2224 103.1093 0 0 171.1136 -36.2661 0 0 -142.355z"/>
  <polygon class="fil0 str0" points="-356.513,-387.4289 -356.513,-244.5947 -393.4902,-244.5947 -393.4902,-387.4289 -436.6301,-387.4289 -436.6301,-415.7083 -313.373,-415.7083 -313.373,-387.4289 "/>
  <polygon class="fil0 str0" points="-263.0013,-279.824 -276.038,-244.5947 -313.2521,-244.5947 -249.4903,-415.7083 -214.6465,-415.7083 -149.6995,-244.5947 -186.9136,-244.5947 -201.1356,-280.5429 "/>
  <polygon class="fil0 str0" points="-252.0977,-309.0618 -211.091,-309.0618 -232.1869,-362.9842 "/>
  <path class="fil0 str0" d="M-128.0133 -243.6361l0 -28.2793c5.3727,-0.1597 9.3232,-1.7574 11.8516,-4.7931 0.7901,-0.9586 2.7654,-4.6333 5.9258,-11.0241 4.4247,-9.5862 8.6912,-16.7359 12.7998,-21.4491 4.1086,-4.7132 9.9554,-8.5077 17.5405,-11.3836 -9.7974,-2.3965 -18.8046,-6.9899 -27.0218,-13.7802 -8.2171,-6.7902 -12.2468,-17.5347 -12.0886,-32.2335 0.3159,-13.2609 4.8196,-24.7644 13.5108,-34.5103 8.6912,-9.746 24.5724,-14.619 47.6436,-14.619l65.8952 0 0 171.1136 -36.5031 0 0 -67.343 -8.5332 0c-6.953,0 -12.5627,1.6776 -16.8293,5.0328 -3.1605,2.5563 -6.7159,7.9884 -10.6665,16.2965 -7.111,15.3379 -14.38,27.4005 -21.8071,36.1879 -7.4269,8.7873 -16.5922,13.4206 -27.4957,13.8999 -4.8988,0.1598 -9.6393,-0.8787 -14.222,-3.1155z"/>
  <path class="fil0 str0" d="M-28.4595 -387.4289l-17.5405 0c-9.0072,0 -16.6317,1.2381 -22.8737,3.7146 -6.2418,2.4764 -9.4417,8.9071 -9.5997,19.2922 0,15.1781 9.3232,22.7672 27.9698,22.7672l22.0441 0 0 -45.774z"/>
  <polygon class="fil0 str0" points="671.4988,-387.4289 671.4988,-244.5947 634.5217,-244.5947 634.5217,-415.7083 770.1045,-415.7083 770.1045,-244.5947 733.1273,-244.5947 733.1273,-387.4289 "/>
  <path class="fil0 str0" d="M1124.9427 -272.6343l14.222 0 0 68.7809 -33.1846 0 0 -40.7413 -95.7613 0 0 40.7413 -33.1846 0 0 -68.7809 14.933 0c8.0592,-14.0598 13.985,-28.1994 17.7776,-42.4189 3.7925,-14.2196 6.0838,-28.2793 6.8739,-42.1793 0.7901,-13.8999 1.0271,-33.3918 0.7111,-58.4758l107.6129 0 0 143.074z"/>
  <path class="fil0 str0" d="M1054.781 -387.1893c-0.3161,24.1252 -1.9753,44.6157 -4.9777,61.4714 -3.0024,16.8557 -9.0072,34.5502 -18.0146,53.0836l56.1769 0 0 -114.555 -33.1846 0z"/>
  <path class="fil0 str0" d="M1164.7642 -244.5947l0 -171.1136 36.0291 0 0 64.4672c6.7949,0.9586 11.8516,0.3595 15.17,-1.7974 3.3185,-2.1569 6.795,-6.6704 10.4295,-13.5405 1.2642,-1.9173 2.8444,-4.9529 4.7407,-9.1069 9.0072,-18.3735 16.3157,-30.3163 21.9255,-35.8284 5.6097,-5.5121 12.2862,-8.2681 20.0293,-8.2681 5.2146,0 10.4294,0.7988 15.6441,2.3966l0 27.8c-4.4246,-0.6392 -7.8615,0 -10.3109,1.9172 -2.4493,1.9172 -5.0962,5.1925 -7.9406,9.8258 -1.2642,2.077 -3.1604,5.3523 -5.6888,9.8259 -3.1604,5.4322 -4.8987,8.4678 -5.2147,9.1069 -1.5802,3.3551 -3.3185,6.231 -5.2147,8.6275 -4.5827,6.3908 -10.5085,10.9442 -17.7775,13.6603 8.3752,2.7162 14.617,7.0299 18.7256,12.9414 4.1086,5.9115 8.8492,15.1781 14.222,27.7999 0.316,0.3196 0.7901,1.1984 1.4222,2.6362 0.632,1.438 1.1851,2.7162 1.6592,3.8346 3.0025,6.231 6.0443,10.7045 9.1258,13.4206 3.0814,2.7161 7.2295,4.0741 12.4442,4.0741l0 28.2793c-3.4765,1.5977 -7.9801,2.6362 -13.5108,3.1155 -7.111,0.3195 -13.5109,-1.6376 -19.1997,-5.8715 -5.6889,-4.2339 -11.8517,-12.8216 -18.4886,-25.7629 -0.9481,-2.2368 -1.9358,-4.5135 -2.9629,-6.8301 -1.0272,-2.3167 -2.0543,-4.5934 -3.0815,-6.8303 -1.0271,-2.2367 -2.0937,-4.4735 -3.1999,-6.7103 -5.3728,-11.1838 -8.8492,-18.1738 -10.4295,-20.9698 -1.5802,-2.7959 -4.148,-4.9927 -7.7035,-6.5905 -3.5555,-1.5976 -8.4937,-2.077 -14.8145,-1.4379l0 76.9292 -36.0291 0z"/>
  <path class="fil0 str0" d="M1500.4028 -244.5947l0 -171.1136 54.9917 0c11.6936,0 22.2415,0.679 31.6439,2.0371 9.4023,1.3581 17.8169,5.1126 25.2439,11.2638 7.4271,6.1511 11.3776,15.7773 11.8517,28.8784 0.316,10.385 -2.4099,19.0925 -8.1776,26.1224 -5.7678,7.0298 -13.3924,10.7844 -22.8737,11.2637l0 2.8759c11.5355,-0.4793 21.0959,3.0356 28.681,10.5448 7.585,7.5092 11.6146,17.1753 12.0886,28.9983 0.7901,32.7528 -19.8318,49.1292 -61.8655,49.1292l-71.584 0z"/>
  <path class="fil0 str0" d="M1537.6169 -387.4289l0 39.5429 20.6219 0c6.7949,0 12.7603,-1.1183 17.896,-3.3551 5.1357,-2.2368 7.6245,-7.7489 7.4666,-16.5362 -0.4741,-8.308 -3.2395,-13.6603 -8.2962,-16.0569 -5.0567,-2.3965 -11.4566,-3.5947 -19.1997,-3.5947l-18.4886 0z"/>
  <path class="fil0 str0" d="M1537.6169 -318.8877l0 46.2534 23.9404 0c7.7431,0 14.4195,-1.2782 20.0293,-3.8345 5.6098,-2.5563 8.6517,-8.6275 9.1258,-18.2137 0.632,-9.5863 -2.0938,-16.017 -8.1776,-19.2923 -6.0839,-3.2753 -13.7875,-4.9129 -23.1108,-4.9129l-21.8071 0z"/>
  <polygon class="fil0 str0" points="1697.8512,-279.824 1684.8144,-244.5947 1647.6002,-244.5947 1711.3621,-415.7083 1746.206,-415.7083 1811.153,-244.5947 1773.9388,-244.5947 1759.7168,-280.5429 "/>
  <polygon class="fil0 str0" points="1708.7548,-309.0618 1749.7614,-309.0618 1728.6654,-362.9842 "/>
  <path class="fil1 str0" d="M477.9316 -507.5149c5.4983,17.5419 9.705,35.5249 12.5786,53.6772 5.6461,35.6679 6.2992,72.9942 -0.0438,108.6143 -6.0411,33.9259 -18.6209,66.9224 -40.1165,94.1024 -36.8916,46.6468 -90.6862,64.8447 -148.6954,64.8447 -58.0103,0 -111.806,-18.1984 -148.6982,-64.8465 -54.5904,-69.0263 -52.9805,-175.1965 -27.5794,-256.3904 -3.4283,-3.4933 -7.0795,-6.498 -6.9228,-11.9203 0.6218,-21.401 -0.8147,-42.6493 -0.3821,-64.0093l0.0023 -0.1123c0.1026,-5.0532 3.7833,-9.4328 8.7187,-10.3845l42.1391 -8.1245c1.4485,-0.2832 2.9538,-0.2735 4.3955,0.0474l45.2419 10.0722c4.9136,1.0934 8.2964,5.4376 8.4224,10.4244l1.1324 44.6005c0.0537,1.4143 -0.1347,2.7078 -0.5929,4.0494 -9.0734,26.5537 -16.1134,54.5046 -20.1154,82.2892 -5.7541,39.9505 -7.0468,94.6312 19.8528,127.7952 18.5077,22.8171 46.0775,29.9603 74.3846,29.9603 28.294,0 55.8592,-7.1341 74.3579,-29.9438 26.8978,-33.1674 25.5767,-87.8846 19.8249,-127.8333 -4.0003,-27.7806 -11.0255,-55.7173 -20.0642,-82.2778 -0.3394,-0.9973 -0.4423,-1.097 -0.5702,-2.7234l1.1137 -45.9163c0.1261,-4.9879 3.5082,-9.3297 8.4224,-10.4238l45.2414 -10.0728c1.4382,-0.3203 2.9401,-0.3306 4.3857,-0.0496l42.1494 8.1267c4.8652,0.9373 8.4545,5.1689 8.7061,10.1253l-0.3672 64.3848c0.0847,2.9689 -1.0028,5.8826 -3.0885,8.0082l-3.8332 3.9064z"/>
 </g>
</svg>
