<?xml version="1.0" encoding="UTF-8"?>
<!DOCTYPE svg PUBLIC "-//W3C//DTD SVG 1.1//EN" "http://www.w3.org/Graphics/SVG/1.1/DTD/svg11.dtd">
<!-- Creator: CorelDRAW -->
<svg xmlns="http://www.w3.org/2000/svg" xml:space="preserve" width="3000mm" height="800mm" version="1.1" style="shape-rendering:geometricPrecision; text-rendering:geometricPrecision; image-rendering:optimizeQuality; fill-rule:evenodd; clip-rule:evenodd"
viewBox="0 0 3000 800"
 xmlns:xlink="http://www.w3.org/1999/xlink"
 xmlns:xodm="http://www.corel.com/coreldraw/odm/2003">
 <defs>
  <style type="text/css">
   <![CDATA[
    .str0 {stroke:#2B2A29;stroke-width:0.0762;stroke-miterlimit:22.9256}
    .fil0 {fill:#FEFEFE}
    .fil1 {fill:#FEFEFE;fill-rule:nonzero}
   ]]>
  </style>
 </defs>
 <g id="Слой_x0020_1">
  <metadata id="CorelCorpID_0Corel-Layer"/>
  <path class="fil0 str0" d="M1040.9052 312.1842l0 0 -1.6261 -1.4399 0 -9.5111 1.6261 -1.5012c8.8884,-0.1269 14.6455,-0.5633 17.2116,-1.3782 2.5623,-0.7497 4.8806,-2.3778 6.8835,-4.7556 1.999,-2.3777 6.0685,-10.1994 12.2023,-23.3396l19.2701 -41.8005 49.8739 -112.9496c9.3882,-22.1517 18.709,-44.2419 28.0337,-66.3935l11.8888 0 78.2844 184.0986 10.4471 24.5294c3.068,7.0084 6.5702,14.58 10.576,22.7765 3.9426,8.1347 6.6971,13.0172 8.1964,14.4549 1.5647,1.4399 3.4427,2.6297 5.6956,3.3794 2.2548,0.8149 7.3237,1.2513 15.1451,1.3782l1.438 1.5012 0 9.5111 -1.438 1.4399c-12.9538,-1.065 -24.6542,-1.6282 -35.0439,-1.6282 -20.2737,0.6267 -40.5492,1.1899 -60.8228,1.6282l-1.5033 -1.4399 0 -9.5111 1.5033 -1.5012c13.7054,-0.2518 22.213,-0.8151 25.6578,-1.753 3.4387,-0.8766 5.1304,-3.0046 5.1304,-6.3203 0,-2.6911 -0.8765,-6.1954 -2.5681,-10.6375l-22.5266 -55.8809 -106.191 0 -19.9602 46.9329c-3.5677,8.4463 -5.3208,14.5801 -5.3208,18.5224 0,3.066 1.6301,5.3189 4.9439,6.7567 3.3159,1.5031 11.639,2.2528 24.9678,2.3797l1.628 1.5012 0 9.5111 -1.503 1.4399c-15.7681,-0.94 -29.533,-1.4399 -41.4257,-1.4399 -13.4538,0 -26.9668,0.4999 -40.6743,1.4399zm83.603 -102.8118l0 0 92.7355 0 -45.9909 -110.5719 -46.7446 110.5719z"/>
  <path class="fil0 str0" d="M1662.188 190.5604l-81.039 0 0 -19.8215 81.039 0 0 19.8215z"/>
  <path class="fil0 str0" d="M2452.9476 51.8073l0 0 1.5032 -1.315c22.3381,1.0016 39.7361,1.5013 52.1862,1.5013 13.8325,0 32.4779,-0.4363 55.9443,-1.3129 8.6961,-0.2498 14.9548,-0.3767 18.8994,-0.3767 30.9091,0 51.8748,5.6322 62.8871,16.8962 10.949,11.2642 16.4562,24.5295 16.4562,39.986 0,10.2628 -2.6892,20.3371 -8.0715,30.2231 -5.3801,9.8879 -13.2652,18.3362 -23.7797,25.4059 -10.5106,7.0085 -25.0291,12.3273 -43.4882,15.8315 3.4426,4.7555 9.634,13.0172 18.5204,24.7812l26.0328 34.4153c8.4462,11.3893 17.4595,23.4031 27.1569,36.0436 9.6381,12.6405 15.8949,19.8373 18.7111,21.4634 2.7526,1.6283 5.1938,2.6296 7.1968,3.0045 2.0644,0.3748 5.2552,0.5633 9.634,0.5633l1.5053 1.4397 0 8.6346 -1.6897 1.6897c-5.884,-0.7516 -12.8289,-1.1265 -20.9003,-1.1265 -8.6386,0 -18.1477,0.3749 -28.4104,1.1265 -8.4481,-10.3243 -21.7154,-28.0972 -39.7995,-53.3762 -21.0253,-29.3485 -42.4888,-56.5075 -64.5136,-81.6002l1.8146 -5.63c6.3837,0.3113 11.3237,0.4997 14.8914,0.4997 21.1522,0 37.6716,-5.0689 49.6856,-15.2067 11.9503,-10.1359 17.9612,-24.216 17.9612,-42.1754 0,-16.1447 -5.3823,-28.2835 -16.1467,-36.5433 -10.7625,-8.2598 -25.2811,-12.3906 -43.6132,-12.3906 -12.8289,0 -24.9696,1.7511 -36.2953,5.3187 -1.8761,2.6912 -2.7546,25.5944 -2.7546,68.7713l0 84.8525 0.1884 35.7302c0.127,13.8285 0.4402,22.7783 1.0649,26.7822 0.6248,4.0675 1.5013,6.7585 2.6912,8.0714 1.1264,1.3783 3.3792,2.5046 6.6932,3.3793 3.2562,0.9399 11.389,1.6282 24.3449,2.1279l1.4992 1.0649 0 9.1978 -1.4992 1.4399c-0.6287,0 -11.3277,-0.3134 -32.228,-1.065 -8.6981,-0.25 -15.4566,-0.3749 -20.4006,-0.3749 -3.754,0 -21.2135,0.4998 -52.3746,1.4399l-1.5032 -1.4399 0 -9.1978 1.5032 -1.0649c11.3257,-0.4997 18.8993,-1.1264 22.7148,-1.8147 3.7561,-0.7515 6.3203,-1.6896 7.5717,-2.8775 1.3148,-1.1264 2.3797,-3.629 3.1273,-7.3851 0.8152,-3.8176 1.2514,-12.2637 1.3783,-25.3425l0.1884 -38.6712 0 -84.8525 -0.3768 -35.7936c-0.1249,-13.8919 -0.4362,-22.9033 -0.9995,-26.9072 -0.5632,-4.0674 -1.3781,-6.7586 -2.5661,-8.0734 -1.1264,-1.3763 -3.3792,-2.4392 -6.6951,-3.3158 -3.3178,-0.8766 -11.3892,-1.5012 -24.343,-2.0029l-1.5032 -1.313 0 -9.1361z"/>
  <path class="fil0 str0" d="M2147.3901 49.0538l0 0 1.4377 -1.315c30.3499,1.0016 47.8115,1.5013 52.44,1.5013 4.1945,0 21.7154,-0.4997 52.6246,-1.5013l1.5033 1.315 0 9.1361 -1.5033 1.313c-8.4462,0.2499 -14.9548,0.6265 -19.5199,1.0648 -4.5713,0.4998 -7.8871,1.438 -10.013,2.7527 -2.0664,1.3762 -3.4447,4.5057 -4.1308,9.4497 -0.6248,4.9418 -1.0015,11.8253 -1.0015,20.6483l-0.3768 42.1774 0 58.2566c0,19.2107 0.4382,33.291 1.2514,42.3023 0.7516,8.948 2.5026,16.5196 5.1322,22.715 2.6297,6.1318 6.6317,11.4506 11.9524,15.9563 5.3804,4.4421 13.0769,8.0713 23.1512,10.8872 10.0148,2.8162 21.3406,4.1926 34.104,4.1926 13.3922,0 25.9711,-1.8147 37.6717,-5.5688 11.6391,-3.6926 20.5255,-9.1363 26.6573,-16.2061 6.0684,-7.0719 10.0743,-16.3946 12.014,-27.9722 1.8779,-11.5757 2.8179,-27.5953 2.8179,-48.1209l0 -56.442c0,-9.5746 -0.127,-22.6533 -0.4382,-39.3614 -0.3155,-16.6443 -1.065,-26.2805 -2.1914,-28.7832 -1.188,-2.5047 -3.3178,-4.3808 -6.4452,-5.6955 -3.1275,-1.2514 -11.7659,-2.0029 -25.9078,-2.2528l-1.4992 -1.5014 0 -8.5731 1.4992 -1.6896c18.0862,1.0016 32.5393,1.5013 43.4308,1.5013 9.2613,0 23.7143,-0.4997 43.2383,-1.5013l1.6896 1.5013 0 8.7614 -1.6896 1.5014c-11.4507,0.2499 -18.9608,0.6881 -22.467,1.3762 -3.4387,0.6902 -5.8819,1.6896 -7.3198,3.0045 -1.3782,1.3763 -2.4412,3.4407 -3.1293,6.2568 -0.6267,2.8161 -1.1264,10.8894 -1.3763,24.1546l-0.4997 41.3008 0 55.6924c0,22.2766 -0.8746,39.7976 -2.5642,52.6246 -1.7531,12.829 -5.5727,23.405 -11.4527,31.6013 -5.9454,8.2597 -12.9518,15.2066 -21.0866,20.7753 -8.1369,5.5071 -18.5861,9.8245 -31.288,12.8269 -12.706,2.9431 -25.9097,4.4442 -39.6132,4.4442 -17.0828,0 -32.224,-1.878 -45.3643,-5.632 -13.1442,-3.8176 -23.4663,-8.823 -31.04,-15.0819 -7.5715,-6.1933 -13.0133,-12.7635 -16.3311,-19.7103 -3.3178,-6.8835 -5.4457,-15.0183 -6.4472,-24.341 -0.938,-9.3862 -1.4359,-23.6549 -1.4359,-42.802l0 -70.3975 -0.3787 -35.7936c-0.123,-13.8919 -0.4362,-22.9033 -0.9994,-26.9072 -0.5633,-4.0674 -1.4378,-6.7586 -2.5642,-8.0734 -1.192,-1.3763 -3.3792,-2.4392 -6.6991,-3.3158 -3.3138,-0.8766 -11.4487,-1.5012 -24.4045,-2.0029l-1.4377 -1.313 0 -9.1361z"/>
  <path class="fil0 str0" d="M516.1886 170.9503l0 0c0,14.8933 2.4413,30.9746 7.2623,48.1207 4.817,17.2077 12.0139,31.9126 21.5864,44.1783 9.6361,12.2638 20.7119,21.4002 33.2275,27.407 12.5156,6.009 26.7842,9.0114 42.804,9.0114 18.9569,0 35.7918,-4.3808 50.5601,-13.0153 14.8299,-8.698 26.0306,-22.1517 33.7292,-40.4242 7.7581,-18.2726 11.5736,-38.7962 11.5736,-61.511 0,-24.7178 -4.3787,-46.9944 -13.2038,-66.9566 -8.821,-19.8989 -21.3365,-34.354 -37.6082,-43.4269 -16.2041,-9.0114 -34.2289,-13.5786 -54.0643,-13.5786 -29.6598,0 -53.0627,9.3229 -70.2089,27.9088 -17.0848,18.584 -25.6579,45.9929 -25.6579,82.2864zm-38.1058 12.0773l0 0c0,-18.3341 2.6255,-35.4189 7.8828,-51.3118 5.2553,-15.8948 14.2053,-30.5997 26.8438,-44.0533 12.6425,-13.5172 27.9107,-23.9663 45.743,-31.3516 17.8344,-7.4465 37.9831,-11.1373 60.5135,-11.1373 41.6756,0 74.8376,11.3258 99.4939,34.0406 24.7158,22.6515 37.0451,53.6281 37.0451,92.8624 0,27.5955 -6.007,52.4381 -18.1458,74.4014 -12.0772,22.0267 -29.4138,39.1115 -51.9403,51.3136 -22.5899,12.2638 -47.9325,18.3341 -76.0295,18.3341 -19.8969,0 -38.2309,-3.3177 -55.0023,-9.9493 -16.7079,-6.6971 -30.9746,-16.583 -42.802,-29.7867 -11.7639,-13.2038 -20.337,-28.4719 -25.6578,-45.868 -5.3189,-17.3326 -7.9444,-33.164 -7.9444,-47.4941z"/>
  <path class="fil0 str0" d="M1324.7344 51.7131l0 0 1.5012 -1.3149c30.2885,1.0015 47.8073,1.5012 52.4381,1.5012 4.1309,0 21.6538,-0.4997 52.6285,-1.5012l1.4397 1.3149 0 9.1361 -1.4397 1.313c-8.4481,0.2499 -14.9569,0.6265 -19.5261,1.0648 -4.6306,0.4998 -7.9444,1.438 -10.0088,2.7527 -2.0665,1.3762 -3.4448,4.5057 -4.1328,9.4497 -0.6863,4.9418 -0.9996,11.8253 -0.9996,20.6483l-0.3747 42.1774 0 81.035c0,20.2736 0.1228,34.4172 0.3747,42.4887l0.938 31.7262 37.3584 0c29.8461,0 48.4322,-0.3769 55.8154,-1.0649 7.3851,-0.7497 14.5205,-2.5642 21.402,-5.3188 1.3128,-3.0659 3.2522,-10.1358 5.757,-21.0867 2.5047,-11.0143 3.8157,-17.3961 3.9404,-19.0858l1.6303 -1.4397 9.0113 0 1.2513 1.4397c-0.942,4.8805 -2.0029,14.3302 -3.0044,28.4085 -1.0649,14.0802 -1.5667,25.4059 -1.5667,34.104l-1.4377 1.4399c-23.2146,-0.6883 -53.751,-1.065 -91.4862,-1.065l-53.5643 -0.3749c-12.2004,0 -24.6545,0.4998 -37.3565,1.4399l-1.5013 -1.4399 0 -6.0703 1.5013 -1.8145c7.5697,-3.9426 11.7025,-6.3205 12.4502,-7.1335 0.688,-0.8766 1.5052,-8.7594 2.2529,-23.6528 0.813,-14.8934 1.1897,-32.9162 1.1897,-53.8779l0 -78.6572 -0.3133 -35.7936c-0.1229,-13.8919 -0.5017,-22.9033 -1.0629,-26.9072 -0.4998,-4.0674 -1.3784,-6.7586 -2.5643,-8.0734 -1.1283,-1.3763 -3.3813,-2.4392 -6.695,-3.3158 -3.2543,-0.8766 -11.3892,-1.5012 -24.3449,-2.0029l-1.5012 -1.313 0 -9.1361z"/>
  <path class="fil0 str0" d="M785.8739 68.8581l0 0 -1.6262 -1.6896 0 -7.6964 1.6262 -1.6263 51.8749 -8.6365c3.6926,2.5661 7.2603,5.8206 10.701,9.7609 3.5041,3.8811 8.573,11.2029 15.2681,21.9019 6.6337,10.6374 15.2068,25.5942 25.7195,44.68 10.5145,19.1472 20.5868,38.2964 30.2864,57.507l18.6495 -29.7232 21.0886 -35.169 38.9209 -66.5799c4.7556,0.5017 9.3863,0.7517 13.8919,0.7517 2.8162,0 7.0699,-0.25 12.8289,-0.7517l1.4993 1.5012 0 3.4428c-6.1318,6.7586 -15.5815,18.9607 -28.4064,36.6067 -12.8944,17.6459 -22.4055,31.4744 -28.7258,41.4258 -6.3202,9.9493 -14.0148,22.4629 -23.2146,37.6062 -9.1343,15.0818 -14.1396,24.1546 -15.0182,27.2205 -0.8131,3.0045 -1.2494,6.6336 -1.2494,10.8259l0 26.9073 0.1864 27.5339c0.1249,10.6375 0.5017,18.0208 1.188,22.2766 0.6265,4.1924 1.5666,6.9469 2.7525,8.1983 1.1264,1.3127 3.3178,2.3777 6.5721,3.2523 3.2543,0.815 11.3257,1.5032 24.2776,2.003l1.5031 1.0649 0 9.1978 -1.5031 1.4398c-0.5632,0 -11.3257,-0.3133 -32.226,-1.065 -8.698,-0.2499 -15.4565,-0.3748 -20.3986,-0.3748 -3.8809,0 -21.3385,0.4998 -52.3765,1.4398l-1.5013 -1.4398 0 -9.1978 1.5013 -1.0649c11.5775,-0.4998 19.2125,-1.1265 22.9033,-1.8147 3.629,-0.7515 6.1318,-1.6896 7.3831,-2.8775 1.3148,-1.1264 2.3163,-3.3793 3.0659,-6.7585 0.6901,-3.3793 1.1264,-10.2627 1.2513,-20.6504l0.3769 -31.3495 0 -34.7921c-2.6891,-6.6336 -11.6371,-22.465 -26.9707,-47.496l-16.0812 -26.2192c-5.1324,-8.3213 -11.5756,-18.0207 -19.3357,-29.0967 -7.7599,-11.0143 -13.8303,-18.5224 -18.0862,-22.5283 -4.2518,-3.9425 -7.5715,-6.2569 -9.8839,-6.9449 -2.3183,-0.6882 -8.5751,-1.0016 -18.7129,-1.0016z"/>
  <path class="fil0 str0" d="M1848.7385 50.3982l0 0 1.6896 1.6896c-1.1265,10.9509 -1.6896,30.1616 -1.6896,57.5705l-1.4378 1.4378 -8.6365 0 -1.4419 -1.6262 -2.0644 -16.8964c-0.9359,-9.0094 -1.7511,-14.5799 -2.2528,-16.5809 -0.5633,-2.0031 -1.4377,-3.5042 -2.6911,-4.3807 -1.1879,-0.9381 -5.1919,-1.6898 -11.8869,-2.3164 -6.7605,-0.6246 -14.2668,-0.938 -22.5265,-0.938l-34.6672 0c-1.0035,27.6589 -1.5013,43.6151 -1.5013,47.8709l0 106.8792 0.3748 35.7302c0.123,13.8285 0.4383,22.7783 1.0016,26.9072 0.5631,4.0674 1.4377,6.7585 2.564,8.0099 1.19,1.3148 3.4409,2.4412 6.6972,3.3158 3.3158,0.9399 11.514,1.6282 24.5908,2.1279l1.2514 1.0649 0 9.1978 -1.2514 1.4399c-31.288,-0.9401 -48.7475,-1.4399 -52.44,-1.4399 -3.9405,0 -21.3366,0.4998 -52.2477,1.4399l-1.4418 -1.4399 0 -9.1978 1.4418 -1.0649c11.5121,-0.4997 19.0857,-1.1264 22.8378,-1.8147 3.6946,-0.7515 6.1973,-1.6896 7.5101,-2.8774 1.2513,-1.1265 2.3163,-3.6291 3.1909,-7.3852 0.8784,-3.8175 1.3128,-12.2637 1.3128,-25.3425l0.3769 -38.6712 0 -106.8792c0,-1.9395 -0.5019,-17.8978 -1.5033,-47.8709l-27.3454 0c-11.2008,0 -20.8984,0.2498 -29.0966,0.7516 -8.1984,0.4997 -12.9539,1.7511 -14.2033,3.754 -1.3128,2.003 -2.5048,8.5731 -3.6311,19.7104l-1.8146 16.8964 -1.6263 1.6262 -8.446 0 -1.4417 -1.4378c-0.248,-29.4734 -0.8113,-48.6841 -1.6877,-57.5705l1.6877 -1.6896c21.275,1.0015 56.6303,1.5012 106.1275,1.5012 50.5005,0 85.9193,-0.4997 106.318,-1.5012z"/>
  <path class="fil0 str0" d="M194.2416 51.8073l1.5033 -1.315c22.338,1.0016 39.7342,1.5013 52.1882,1.5013 13.8285,0 32.4758,-0.4363 55.9423,-1.3129 8.6961,-0.2498 14.9548,-0.3767 18.8973,-0.3767 30.9131,0 51.8769,5.6322 62.8872,16.8962 10.951,11.2642 16.4581,24.5295 16.4581,39.986 0,10.2628 -2.6891,20.3371 -8.0694,30.2231 -5.3842,9.8879 -13.2692,18.3362 -23.7817,25.4059 -10.5127,7.0085 -25.0272,12.3273 -43.4903,15.8315 3.4427,4.7555 9.6381,13.0172 18.5225,24.7812l26.0307 34.4153c8.4482,11.3893 17.4615,23.4031 27.1591,36.0436 9.6359,12.6405 15.8948,19.8373 18.711,21.4634 2.7525,1.6283 5.1918,2.6296 7.1947,3.0045 2.0664,0.3748 5.2573,0.5633 9.6361,0.5633l1.5032 1.4397 0 8.6346 -1.6896 1.6897c-5.882,-0.7516 -12.8289,-1.1265 -20.9004,-1.1265 -8.6366,0 -18.1477,0.3749 -28.4104,1.1265 -8.4461,-10.3243 -21.7113,-28.0972 -39.7957,-53.3762 -21.027,-29.3485 -42.4906,-56.5075 -64.5154,-81.6002l1.8126 -5.63c6.3858,0.3113 11.3257,0.4997 14.8935,0.4997 21.1501,0 37.6716,-5.0689 49.6855,-15.2067 11.9504,-10.1359 17.9612,-24.216 17.9612,-42.1754 0,-16.1447 -5.3841,-28.2835 -16.1466,-36.5433 -10.7626,-8.2598 -25.2811,-12.3906 -43.6152,-12.3906 -12.8289,0 -24.9676,1.7511 -36.2933,5.3187 -1.8761,2.6912 -2.7546,25.5944 -2.7546,68.7713l0 84.8525 0.1884 35.7302c0.1249,13.8285 0.4383,22.7783 1.0629,26.7822 0.6267,4.0675 1.5033,6.7585 2.6912,8.0714 1.1284,1.3783 3.3812,2.5046 6.6969,3.3793 3.2525,0.9399 11.3873,1.6282 24.3411,2.1279l1.5012 1.0649 0 9.1978 -1.5012 1.4399c-0.6248,0 -11.3238,-0.3134 -32.2259,-1.065 -8.6981,-0.25 -15.4546,-0.3749 -20.4006,-0.3749 -3.754,0 -21.2136,0.4998 -52.3746,1.4399l-1.5033 -1.4399 0 -9.1978 1.5033 -1.0649c11.3257,-0.4997 18.8992,-1.1264 22.7147,-1.8147 3.7562,-0.7515 6.3205,-1.6896 7.5717,-2.8775 1.3128,-1.1264 2.3778,-3.629 3.1273,-7.3851 0.8132,-3.8176 1.2516,-12.2637 1.3764,-25.3425l0.1885 -38.6712 0 -84.8525 -0.3749 -35.7936c-0.125,-13.8919 -0.4383,-22.9033 -0.9995,-26.9072 -0.5651,-4.0674 -1.3783,-6.7586 -2.5661,-8.0734 -1.1266,-1.3763 -3.3793,-2.4392 -6.6971,-3.3158 -3.3159,-0.8766 -11.3892,-1.5012 -24.341,-2.0029l-1.5033 -1.313 0 -9.1361z"/>
  <path class="fil0 str0" d="M1908.6027 170.9503l0 0c0,14.8933 2.4413,30.9746 7.2623,48.1207 4.817,17.2077 12.0138,31.9126 21.5864,44.1783 9.6361,12.2638 20.7119,21.4002 33.2274,27.407 12.5157,6.009 26.7843,9.0114 42.8041,9.0114 18.9569,0 35.7918,-4.3808 50.5601,-13.0153 14.8298,-8.698 26.0306,-22.1517 33.7292,-40.4242 7.758,-18.2726 11.5736,-38.7962 11.5736,-61.511 0,-24.7178 -4.3787,-46.9944 -13.2038,-66.9566 -8.821,-19.8989 -21.3365,-34.354 -37.6082,-43.4269 -16.2042,-9.0114 -34.2289,-13.5786 -54.0643,-13.5786 -29.6598,0 -53.0627,9.3229 -70.2089,27.9088 -17.0848,18.584 -25.6579,45.9929 -25.6579,82.2864zm-38.1059 12.0773l0 0c0,-18.3341 2.6256,-35.4189 7.8829,-51.3118 5.2553,-15.8948 14.2053,-30.5997 26.8438,-44.0533 12.6425,-13.5172 27.9107,-23.9663 45.743,-31.3516 17.8344,-7.4465 37.9831,-11.1373 60.5134,-11.1373 41.6757,0 74.8377,11.3258 99.494,34.0406 24.7158,22.6515 37.0451,53.6281 37.0451,92.8624 0,27.5955 -6.007,52.4381 -18.1458,74.4014 -12.0772,22.0267 -29.4138,39.1115 -51.9403,51.3136 -22.5899,12.2638 -47.9325,18.3341 -76.0295,18.3341 -19.8969,0 -38.2309,-3.3177 -55.0023,-9.9493 -16.7079,-6.6971 -30.9746,-16.583 -42.8021,-29.7867 -11.7639,-13.2038 -20.3369,-28.4719 -25.6577,-45.868 -5.3189,-17.3326 -7.9445,-33.164 -7.9445,-47.4941z"/>
  <path class="fil1 str0" d="M2590.0713 638.4777c0,13.3339 3.0939,23.4369 9.2543,30.3365 6.1604,6.8723 13.9909,10.322 23.4643,10.322 9.5006,0 17.2764,-3.4223 23.3821,-10.2399 6.0782,-6.8448 9.1173,-17.0847 9.1173,-30.747 0,-13.4982 -2.957,-23.5738 -8.8983,-30.1997 -5.9139,-6.6533 -13.7719,-9.9662 -23.6011,-9.9662 -9.8019,0 -17.7146,3.3677 -23.7107,10.0757 -5.9962,6.7354 -9.0079,16.8658 -9.0079,30.4186zm-24.4773 0.794c0,-11.9922 1.8071,-22.0678 5.3938,-30.2269 2.6558,-5.9961 6.3246,-11.3899 10.9518,-16.154 4.6271,-4.764 9.6924,-8.296 15.1957,-10.6232 7.3376,-3.0939 15.7979,-4.6545 25.3808,-4.6545 17.3586,0 31.2126,5.3938 41.6442,16.1539 10.4043,10.7875 15.6063,25.7641 15.6063,44.9571 0,19.0289 -5.1747,33.9232 -15.4968,44.656 -10.322,10.7601 -24.1487,16.1265 -41.4252,16.1265 -17.4955,0 -31.4317,-5.339 -41.7538,-16.0444 -10.322,-10.6779 -15.4968,-25.408 -15.4968,-44.1905z"/>
  <path class="fil1 str0" d="M2479.7866 645.9524l0 31.5411 22.0131 0c8.5424,0 13.9909,-0.2464 16.2908,-0.7119 3.532,-0.6571 6.4068,-2.2177 8.6246,-4.7092 2.2178,-2.5189 3.3403,-5.8318 3.3403,-10.0209 0,-3.5594 -0.8488,-6.5436 -2.5737,-9.0079 -1.6975,-2.4641 -4.1891,-4.2711 -7.4198,-5.3937 -3.2308,-1.1225 -10.2674,-1.6975 -21.0823,-1.6975l-19.193 0zm0 -46.6548l0 27.1058 15.5515 0c9.227,0 14.9767,-0.1369 17.2217,-0.4107 4.0523,-0.4655 7.2557,-1.8619 9.5829,-4.1891 2.3273,-2.3272 3.4772,-5.3664 3.4772,-9.1448 0,-3.6414 -1.013,-6.571 -3.0117,-8.8436 -1.9988,-2.2725 -4.9832,-3.6414 -8.9257,-4.1068 -2.3547,-0.2738 -9.1174,-0.4108 -20.2609,-0.4108l-13.635 0zm-23.8202 -19.5489l47.0381 0c9.3363,0 16.2634,0.3833 20.8357,1.1499 4.5998,0.794 8.6793,2.4095 12.2934,4.8462 3.6142,2.4642 6.6259,5.7223 9.0353,9.8018 2.4094,4.0796 3.6141,8.6793 3.6141,13.7446 0,5.4759 -1.4785,10.5411 -4.4355,15.1134 -2.957,4.5999 -6.9817,8.0223 -12.047,10.3222 7.1461,2.1082 12.622,5.6676 16.4825,10.7054 3.8331,5.0378 5.7497,10.9517 5.7497,17.7693 0,5.3663 -1.2321,10.5683 -3.7236,15.6335 -2.4915,5.0653 -5.8866,9.1174 -10.2126,12.1566 -4.2986,3.0117 -9.6102,4.8736 -15.9349,5.5854 -3.9427,0.4107 -13.4981,0.6845 -28.639,0.794l-40.0562 0 0 -117.6223z"/>
  <path class="fil1 str0" d="M2382.0691 697.371l0 -97.7448 -34.8268 0 0 -19.8775 93.3094 0 0 19.8775 -34.6625 0 0 97.7448 -23.8201 0z"/>
  <path class="fil1 str0" d="M2316.3035 654.0019l22.9988 7.064c-3.532,12.9504 -9.4186,22.5606 -17.6325,28.8579 -8.2138,6.2699 -18.6181,9.4185 -31.24,9.4185 -15.6337,0 -28.4747,-5.339 -38.5504,-16.017 -10.0482,-10.678 -15.0861,-25.2711 -15.0861,-43.8071 0,-19.5764 5.0652,-34.7994 15.1682,-45.6417 10.1031,-10.8423 23.4096,-16.2634 39.892,-16.2634 14.4016,0 26.0927,4.2712 35.0732,12.7862 5.3664,5.0378 9.3638,12.266 12.047,21.712l-23.4916 5.5854c-1.3963,-6.0782 -4.2986,-10.8971 -8.7067,-14.429 -4.4355,-3.532 -9.802,-5.2843 -16.0992,-5.2843 -8.734,0 -15.8254,3.1213 -21.2465,9.3912 -5.4485,6.2425 -8.1591,16.373 -8.1591,30.3913 0,14.8397 2.6832,25.4356 8.0222,31.7328 5.3664,6.3246 12.3208,9.4732 20.8906,9.4732 6.3247,0 11.7732,-1.9986 16.3182,-6.0235 4.545,-4.0247 7.8305,-10.3219 9.8019,-18.9465z"/>
  <path class="fil1 str0" d="M2167.1672 697.371l0 -97.7448 -34.8268 0 0 -19.8775 93.3094 0 0 19.8775 -34.6625 0 0 97.7448 -23.8201 0z"/>
  <path class="fil1 str0" d="M2022.083 697.371l0 -117.6223 23.8202 0 0 46.3262 46.3262 0 0 -46.3262 23.8201 0 0 117.6223 -23.8201 0 0 -51.4186 -46.3262 0 0 51.4186 -23.8202 0z"/>
  <path class="fil1 str0" d="M1912.5101 697.371l0 -117.6223 87.067 0 0 19.8775 -63.2467 0 0 26.1201 58.8111 0 0 19.8775 -58.8111 0 0 31.8697 65.5465 0 0 19.8775 -89.3668 0z"/>
  <path class="fil1 str0" d="M1820.5422 579.7487l79.6745 0 0 19.8775 -55.8543 0 0 97.7448 -23.8202 0 0 -117.6223z"/>
  <path class="fil1 str0" d="M1763.1821 650.7164l-16.3456 -43.5335 -15.8801 43.5335 32.2257 0zm43.5335 46.6546l-25.6547 0 -10.1577 -26.7772 -47.175 0 -9.7745 26.7772 -25.1892 0 45.6691 -117.6223 25.1617 0 47.1203 117.6223z"/>
  <path class="fil1 str0" d="M1545.5423 697.371l0 -117.6223 87.0669 0 0 19.8775 -63.2467 0 0 26.1201 58.8111 0 0 19.8775 -58.8111 0 0 31.8697 65.5465 0 0 19.8775 -89.3667 0z"/>
  <path class="fil1 str0" d="M1437.3109 638.4777c0,13.3339 3.0939,23.4369 9.2543,30.3365 6.1604,6.8723 13.9909,10.322 23.4643,10.322 9.5006,0 17.2765,-3.4223 23.3821,-10.2399 6.0782,-6.8448 9.1173,-17.0847 9.1173,-30.747 0,-13.4982 -2.957,-23.5738 -8.8982,-30.1997 -5.914,-6.6533 -13.772,-9.9662 -23.6012,-9.9662 -9.8019,0 -17.7146,3.3677 -23.7107,10.0757 -5.9961,6.7354 -9.0079,16.8658 -9.0079,30.4186zm-24.4772 0.794c0,-11.9922 1.807,-22.0678 5.3937,-30.2269 2.6558,-5.9961 6.3246,-11.3899 10.9518,-16.154 4.6271,-4.764 9.6924,-8.296 15.1957,-10.6232 7.3376,-3.0939 15.7979,-4.6545 25.3808,-4.6545 17.3586,0 31.2126,5.3938 41.6442,16.1539 10.4043,10.7875 15.6064,25.7641 15.6064,44.9571 0,19.0289 -5.1747,33.9232 -15.4969,44.656 -10.322,10.7601 -24.1487,16.1265 -41.4252,16.1265 -17.4955,0 -31.4316,-5.339 -41.7538,-16.0444 -10.322,-10.6779 -15.4967,-25.408 -15.4967,-44.1905z"/>
  <path class="fil1 str0" d="M1317.8268 579.7487l23.8201 0 0 50.1045c5.2844,-0.5475 8.871,-1.8892 10.7329,-4.1069 1.8617,-2.1903 4.764,-8.296 8.6519,-18.317 4.9009,-12.7314 9.8566,-20.6715 14.8123,-23.7654 4.9283,-3.0938 12.841,-4.6545 23.7928,-4.6545 0.5475,0 1.6975,-0.0274 3.4497,-0.0821l0 17.5776 -3.3676 -0.0821c-4.8735,0 -8.4329,0.6024 -10.678,1.807 -2.2451,1.2048 -4.0522,3.0391 -5.4485,5.5033 -1.3964,2.4642 -3.4498,7.5294 -6.1604,15.1957 -1.451,4.0795 -3.0117,7.4746 -4.7092,10.2126 -1.6702,2.7379 -4.6546,5.3116 -8.9258,7.721 5.2843,1.4784 9.6376,4.5175 13.0874,9.0626 3.4498,4.545 7.2283,10.9518 11.3351,19.2478l16.017 32.1982 -27.9271 0 -14.1004 -30.2817c-0.2191,-0.4381 -0.6844,-1.2594 -1.369,-2.4915 -0.2738,-0.4106 -1.2595,-2.2725 -2.957,-5.5307 -3.0117,-5.8044 -5.4758,-9.4184 -7.3925,-10.8696 -1.9439,-1.4511 -4.8735,-2.1904 -8.8436,-2.2451l0 51.4186 -23.8201 0 0 -117.6223z"/>
  <path class="fil1 str0" d="M1274.1017 654.0019l22.9988 7.064c-3.532,12.9504 -9.4186,22.5606 -17.6324,28.8579 -8.2139,6.2699 -18.6182,9.4185 -31.2401,9.4185 -15.6337,0 -28.4747,-5.339 -38.5504,-16.017 -10.0482,-10.678 -15.0861,-25.2711 -15.0861,-43.8071 0,-19.5764 5.0653,-34.7994 15.1682,-45.6417 10.1031,-10.8423 23.4096,-16.2634 39.892,-16.2634 14.4016,0 26.0927,4.2712 35.0732,12.7862 5.3664,5.0378 9.3638,12.266 12.047,21.712l-23.4916 5.5854c-1.3963,-6.0782 -4.2986,-10.8971 -8.7067,-14.429 -4.4355,-3.532 -9.8019,-5.2843 -16.0992,-5.2843 -8.734,0 -15.8254,3.1213 -21.2465,9.3912 -5.4485,6.2425 -8.1591,16.373 -8.1591,30.3913 0,14.8397 2.6832,25.4356 8.0222,31.7328 5.3664,6.3246 12.3208,9.4732 20.8906,9.4732 6.3247,0 11.7732,-1.9986 16.3182,-6.0235 4.545,-4.0247 7.8305,-10.3219 9.8019,-18.9465z"/>
  <path class="fil1 str0" d="M1089.2898 697.371l0 -117.6223 87.067 0 0 19.8775 -63.2467 0 0 26.1201 58.8111 0 0 19.8775 -58.8111 0 0 31.8697 65.5465 0 0 19.8775 -89.3668 0z"/>
  <path class="fil1 str0" d="M971.8864 579.7487l23.8201 0 0 28.064c0,9.09 0.3286,15.1135 1.0131,18.0705 0.6572,2.9844 2.6558,5.558 5.9688,7.7484 3.2855,2.1903 8.1591,3.2855 14.5659,3.2855 5.0652,0 9.5827,-0.5476 13.5528,-1.6427 3.9427,-1.0952 7.3652,-2.7107 10.24,-4.8462l0 -50.6795 23.8201 0 0 117.6223 -23.8201 0 0 -47.3939c-4.8188,2.1357 -9.5555,3.751 -14.2101,4.8463 -4.6544,1.0951 -9.2268,1.6427 -13.7171,1.6427 -11.7184,0 -21.5202,-2.7653 -29.4056,-8.296 -7.8853,-5.5307 -11.8279,-15.1135 -11.8279,-28.7485l0 -39.6729z"/>
  <path class="fil1 str0" d="M856.0984 579.7487l22.1774 0 0 78.3055 47.6404 -78.3055 23.6558 0 0 117.6223 -22.1774 0 0 -77.0458 -47.6403 77.0458 -23.6559 0 0 -117.6223z"/>
  <path class="fil1 str0" d="M781.8725 697.371l0 -97.7448 -34.8268 0 0 -19.8775 93.3094 0 0 19.8775 -34.6625 0 0 97.7448 -23.8201 0z"/>
  <path class="fil1 str0" d="M716.1069 654.0019l22.9988 7.064c-3.532,12.9504 -9.4186,22.5606 -17.6324,28.8579 -8.2139,6.2699 -18.6182,9.4185 -31.2401,9.4185 -15.6337,0 -28.4747,-5.339 -38.5504,-16.017 -10.0482,-10.678 -15.0861,-25.2711 -15.0861,-43.8071 0,-19.5764 5.0653,-34.7994 15.1683,-45.6417 10.1031,-10.8423 23.4095,-16.2634 39.8919,-16.2634 14.4016,0 26.0927,4.2712 35.0732,12.7862 5.3664,5.0378 9.3638,12.266 12.047,21.712l-23.4916 5.5854c-1.3963,-6.0782 -4.2986,-10.8971 -8.7067,-14.429 -4.4355,-3.532 -9.8019,-5.2843 -16.0991,-5.2843 -8.7341,0 -15.8255,3.1213 -21.2466,9.3912 -5.4485,6.2425 -8.1591,16.373 -8.1591,30.3913 0,14.8397 2.6832,25.4356 8.0222,31.7328 5.3664,6.3246 12.3208,9.4732 20.8906,9.4732 6.3247,0 11.7732,-1.9986 16.3182,-6.0235 4.545,-4.0247 7.8305,-10.3219 9.8019,-18.9465z"/>
  <path class="fil1 str0" d="M523.1086 579.7487l22.1774 0 0 78.3055 47.6404 -78.3055 23.6558 0 0 117.6223 -22.1774 0 0 -77.0458 -47.6403 77.0458 -23.6559 0 0 -117.6223z"/>
  <path class="fil1 str0" d="M437.0273 599.6262l0 33.5125 12.9505 0c9.3365,0 15.5516,-0.6296 18.7003,-1.8618 3.1486,-1.2321 5.6128,-3.1486 7.3924,-5.8044 1.7796,-2.6284 2.6832,-5.6676 2.6832,-9.1722 0,-4.2985 -1.2594,-7.8305 -3.751,-10.6232 -2.5189,-2.7927 -5.6676,-4.5451 -9.528,-5.2568 -2.8201,-0.5203 -8.4877,-0.7941 -17.0301,-0.7941l-11.4173 0zm-23.8202 97.7448l0 -117.6223 38.085 0c14.429,0 23.8201,0.575 28.2009,1.7522 6.7354,1.7798 12.3756,5.6128 16.9205,11.5268 4.545,5.914 6.8175,13.5529 6.8175,22.9167 0,7.2282 -1.3142,13.2791 -3.9153,18.2074 -2.6284,4.9283 -5.9413,8.7888 -9.9662,11.6089 -4.0247,2.7927 -8.1317,4.6545 -12.2933,5.5581 -5.6675,1.1226 -13.8541,1.6974 -24.5869,1.6974l-15.442 0 0 44.3548 -23.8202 0z"/>
  <path class="fil1 str0" d="M298.9523 579.7487l26.7498 0 27.3795 60.8921 23.4369 -60.8921 24.7785 0 -39.7825 89.394c-4.3259,9.6923 -8.7341,17.0575 -13.2243,22.1227 -4.4903,5.0652 -10.2674,7.5841 -17.386,7.5841 -7.0092,0 -12.4851,-0.4654 -16.4277,-1.369l0 -17.6872c3.3676,0.2191 6.4067,0.3286 9.1173,0.3286 5.476,0 9.4186,-1.0131 11.8006,-3.0117 2.3547,-2.0261 4.6546,-6.3795 6.8175,-13.0325l-43.2596 -84.329z"/>
  <path class="fil1 str0" d="M237.1294 697.371l0 -97.7448 -34.8268 0 0 -19.8775 93.3094 0 0 19.8775 -34.6625 0 0 97.7448 -23.8201 0z"/>
 </g>
</svg>
