<?xml version="1.0" encoding="UTF-8"?>
<!DOCTYPE svg PUBLIC "-//W3C//DTD SVG 1.1//EN" "http://www.w3.org/Graphics/SVG/1.1/DTD/svg11.dtd">
<!-- Creator: CorelDRAW 2021 (64-Bit) -->
<svg xmlns="http://www.w3.org/2000/svg" xml:space="preserve" width="210mm" height="297mm" version="1.1" style="shape-rendering:geometricPrecision; text-rendering:geometricPrecision; image-rendering:optimizeQuality; fill-rule:evenodd; clip-rule:evenodd"
viewBox="0 0 210 297"
 xmlns:xlink="http://www.w3.org/1999/xlink"
 xmlns:xodm="http://www.corel.com/coreldraw/odm/2003">
 <defs>
  <style type="text/css">
   <![CDATA[
    .str0 {stroke:#2B2A29;stroke-width:0.2;stroke-miterlimit:22.9256}
    .fil0 {fill:#FEFEFE;fill-rule:nonzero}
   ]]>
  </style>
 </defs>
 <g id="Слой_x0020_1">
  <metadata id="CorelCorpID_0Corel-Layer"/>
  <path class="fil0 str0" d="M2278.4012 3089.305c18.7867,0 35.3425,-4.1096 49.6673,-12.4461 14.3249,-8.2193 25.3621,-19.9609 33.229,-35.1076 7.7495,-15.1468 11.6242,-32.6419 11.6242,-52.6028l0 -146.5361c0,-19.9608 -3.8747,-37.5733 -11.6242,-52.8375 -7.8669,-15.1468 -18.9041,-27.0059 -33.229,-35.225 -14.3248,-8.2192 -30.8806,-12.3288 -49.6673,-12.3288 -18.9041,0 -35.3424,4.1096 -49.5498,12.3288 -14.2075,8.2191 -25.2447,20.0782 -33.1116,35.225 -7.7495,15.2642 -11.6242,32.8767 -11.6242,52.8375l0 146.5361c0,19.9609 3.8747,37.456 11.6242,52.6028 7.8669,15.1467 18.9041,26.8883 33.1116,35.1076 14.2074,8.3365 30.6457,12.4461 49.5498,12.4461zm0 81.8395c-35.5772,0 -66.9276,-7.6321 -93.9334,-22.8963 -27.1232,-15.2642 -48.0234,-36.7514 -62.9353,-64.6966 -14.912,-27.8277 -22.4266,-60.1174 -22.4266,-96.7514l0 -141.722c0,-36.7515 7.5146,-69.041 22.4266,-96.8689 14.9119,-27.8277 35.8121,-49.4324 62.9353,-64.6966 27.0058,-15.2642 58.3562,-22.8962 93.9334,-22.8962 35.4599,0 66.8102,7.632 94.0508,22.8962 27.1234,15.2642 48.1409,36.8689 62.9354,64.6966 14.7945,27.8279 22.1918,60.1174 22.1918,96.8689l0 141.722c0,36.634 -7.3973,68.9237 -22.1918,96.7514 -14.7945,27.9452 -35.812,49.4324 -62.9354,64.6966 -27.2406,15.2642 -58.5909,22.8963 -94.0508,22.8963z"/>
  <polygon class="fil0 str0" points="1722.4329,2665.7828 1770.5738,2665.7828 2016.5619,2665.7828 2016.5619,2744.5694 1770.5738,2744.5694 1770.5738,2878.0722 1978.7537,2878.0722 1978.7537,2956.859 1770.5738,2956.859 1770.5738,3087.1915 2016.5619,3087.1915 2016.5619,3165.9782 1770.5738,3165.9782 1722.4329,3165.9782 1688.3821,3165.9782 1688.3821,2665.7828 "/>
  <polygon class="fil0 str0" points="1280.3588,2665.7828 1640.2412,2665.7828 1640.2412,2744.5694 1501.5719,2744.5694 1501.5719,3165.9782 1419.3803,3165.9782 1419.3803,2744.5694 1280.3588,2744.5694 "/>
  <polygon class="fil0 str0" points="953.2357,2879.4813 1150.0262,2879.4813 1150.0262,2665.7828 1232.2179,2665.7828 1232.2179,3165.9782 1150.0262,3165.9782 1150.0262,2958.1505 953.2357,2958.1505 953.2357,3165.9782 871.044,3165.9782 871.044,2665.7828 953.2357,2665.7828 "/>
  <polygon class="fil0 str0" points="457.6196,3044.484 669.7917,2665.7828 754.0969,2665.7828 754.0969,3165.626 674.2535,3165.626 674.2535,2792.6206 462.786,3165.626 377.7763,3165.626 377.7763,2665.7828 457.6196,2665.7828 "/>
  <path class="fil0 str0" d="M-166.7854 2992.2013l137.8286 0 -69.0396 -198.7865 -68.789 198.7865zm165.1916 78.7868l-192.4554 0 -32.8708 94.9901 -88.7671 0 187.8668 -500.1954 59.7652 0 187.8667 500.1954 -88.4148 0 -32.9906 -94.9901z"/>
  <polygon class="fil0 str0" points="-637.409,2878.0722 -577.2938,2878.0722 -448.8377,2665.7828 -350.4425,2665.7828 -508.4728,2914.7849 -329.5423,3165.9782 -437.2135,3165.9782 -578.2992,2956.859 -637.409,2956.859 -637.409,3165.9782 -719.6007,3165.9782 -719.6007,2665.7828 -637.409,2665.7828 "/>
  <polygon class="fil0 str0" points="-1133.0251,3044.484 -920.8531,2665.7828 -836.5479,2665.7828 -836.5479,3165.626 -916.3912,3165.626 -916.3912,2792.6206 -1127.8587,3165.626 -1212.8685,3165.626 -1212.8685,2665.7828 -1133.0251,2665.7828 "/>
  <polygon class="fil0 str0" points="-1608.7978,2879.4813 -1412.0073,2879.4813 -1412.0073,2665.7828 -1329.8156,2665.7828 -1329.8156,3165.9782 -1412.0073,3165.9782 -1412.0073,2958.1505 -1608.7978,2958.1505 -1608.7978,3165.9782 -1690.9895,3165.9782 -1690.9895,2665.7828 -1608.7978,2665.7828 "/>
  <polygon class="fil0 str0" points="-2104.4139,3044.484 -1892.2419,2665.7828 -1807.9367,2665.7828 -1807.9367,3165.626 -1887.78,3165.626 -1887.78,2792.6205 -2099.2476,3165.626 -2184.2573,3165.626 -2184.2573,2665.7828 -2104.4139,2665.7828 "/>
  <path class="fil0 str0" d="M-2580.8912 2665.7828l35.1077 0 162.2699 0 37.2212 0 45.088 0 0 500.1954 -82.3092 0 0 -421.4088 -162.2699 0 0 223.5615c0,44.2661 -5.8709,81.0176 -17.3777,110.2543 -11.6243,29.2368 -29.1194,51.1938 -52.4853,65.7535 -23.3659,14.5596 -52.6027,21.8395 -87.7103,21.8395l-6.9276 0 0 -78.7867 0 0c18.4344,0 33.5812,-4.4618 45.7925,-13.3855 12.094,-8.9236 21.2525,-22.4266 27.3581,-40.3914 6.1057,-18.0822 9.0411,-40.7435 9.0411,-67.9843l0 -299.6475 47.2015 0z"/>
  <polygon class="fil0 str0" points="-3059.4818,2878.0722 -2999.3666,2878.0722 -2870.9105,2665.7828 -2772.5153,2665.7828 -2930.5456,2914.7849 -2751.6151,3165.9782 -2859.2863,3165.9782 -3000.372,2956.859 -3059.4818,2956.859 -3059.4818,3165.9782 -3141.6735,3165.9782 -3141.6735,2665.7828 -3059.4818,2665.7828 "/>
  <path class="fil0 str0" d="M3481.9879 4630.081l137.7494 0 -68.9999 -198.6722 -68.7495 198.6722zm165.0967 78.7414l-192.3447 0 -32.8519 94.9354 -88.716 0 187.7587 -499.9076 59.7308 0 187.7587 499.9076 -88.364 0 -32.9716 -94.9354z"/>
  <polygon class="fil0 str0" points="2985.5836,4517.4257 3182.2609,4517.4257 3182.2609,4303.8502 3264.4054,4303.8502 3264.4054,4803.7578 3182.2609,4803.7578 3182.2609,4596.0498 2985.5836,4596.0498 2985.5836,4803.7578 2903.4391,4803.7578 2903.4391,4303.8502 2985.5836,4303.8502 "/>
  <polygon class="fil0 str0" points="2706.7619,4430.6151 2495.416,4803.4058 2410.4551,4803.4058 2410.4551,4303.8502 2490.2526,4303.8502 2490.2526,4682.3335 2702.3026,4303.8502 2786.5593,4303.8502 2786.5593,4803.4058 2706.7619,4803.4058 "/>
  <polygon class="fil0 str0" points="1899.5166,4303.8502 1981.6611,4303.8502 1981.6611,4725.0165 2175.9914,4725.0165 2175.9914,4304.5543 2258.1358,4304.5543 2258.1358,4725.0165 2291.463,4725.0165 2325.1422,4725.0165 2325.1422,4912.4232 2242.9978,4912.4232 2242.9978,4803.7578 2175.9914,4803.7578 1981.6611,4803.7578 1943.1706,4803.7578 1899.5166,4803.7578 "/>
  <polygon class="fil0 str0" points="1702.8394,4430.6151 1491.4935,4803.4058 1406.5326,4803.4058 1406.5326,4303.8502 1486.3301,4303.8502 1486.3301,4682.3335 1698.3801,4303.8502 1782.6368,4303.8502 1782.6368,4803.4058 1702.8394,4803.4058 "/>
  <path class="fil0 str0" d="M994.9889 4303.8502l33.3272 0 149.9723 0 38.8425 0 43.3019 0 0 421.1663 30.6282 0 30.2761 0 0 182.2433 -80.5016 0 0 -103.502 -62.5471 0 -236.9281 0 0 103.502 -80.3842 0 0 -103.502 0 -78.7413 1.6429 0 5.5154 0c24.7607,0 44.006,-10.6787 57.6185,-31.9189 13.6125,-21.3576 20.4187,-51.2816 20.4187,-89.7722l0 -299.4752 48.8173 0zm1.8691 421.1663l181.4304 0 0 -342.425 -149.9723 0 0 216.6267c0,38.9599 -5.7501,72.1697 -17.2504,99.5121 -4.052,9.5366 -8.7902,18.3014 -14.2077,26.2862z"/>
  <polygon class="fil0 str0" points="506.8162,4303.8502 554.9294,4303.8502 800.776,4303.8502 800.776,4382.5915 554.9294,4382.5915 554.9294,4516.0176 762.9895,4516.0176 762.9895,4594.7589 554.9294,4594.7589 554.9294,4725.0165 800.776,4725.0165 800.776,4803.7578 554.9294,4803.7578 506.8162,4803.7578 472.7849,4803.7578 472.7849,4303.8502 "/>
  <polygon class="fil0 str0" points="278.8066,4453.9875 172.9577,4741.2107 107.0074,4741.2107 1.041,4460.377 1.041,4803.7578 -75.9401,4803.7578 -75.9401,4303.8502 18.9955,4303.8502 139.9825,4637.3566 260.9696,4303.8502 355.905,4303.8502 355.905,4803.7578 278.8066,4803.7578 "/>
  <path class="fil0 str0" d="M-464.0139 4303.4982l44.7101 0 37.4344 0 0 500.2596 -82.1445 0 0 -195.9731 -57.9422 0 -115.2653 195.9731 -95.2875 0 120.2346 -198.2613c-17.1803,-2.8635 -32.8784,-8.4089 -47.1261,-16.6051 -21.9443,-12.5563 -38.9599,-30.3934 -51.0468,-53.5112 -12.2044,-23.0004 -18.3065,-49.6387 -18.3065,-79.9148l0 0c0,-30.2761 6.1021,-56.797 18.0717,-79.6801 12.087,-23.0005 28.9853,-40.7202 50.9296,-53.3939 21.827,-12.5564 47.1744,-18.8932 76.1597,-18.8932l119.5788 0zm0 225.5452l0 -146.8039 -115.4716 0c-12.439,0 -23.3525,3.051 -32.8578,9.1532 -9.5053,6.1022 -16.8982,14.6687 -22.0617,25.8169 -5.0459,11.0308 -7.6277,23.8219 -7.6277,38.2558l0 0c0,14.6687 2.5818,27.5771 7.8625,38.7253 5.2806,11.1481 12.5563,19.7146 21.9443,25.8167 9.3879,5.9849 20.3014,9.036 32.7404,9.036l115.4716 0z"/>
  <path class="fil0 str0" d="M-1058.4879 4630.081l137.7494 0 -68.9999 -198.6722 -68.7495 198.6722zm165.0967 78.7414l-192.3447 0 -32.8519 94.9354 -88.716 0 187.7587 -499.9076 59.7308 0 187.7587 499.9076 -88.364 0 -32.9716 -94.9354z"/>
  <polygon class="fil0 str0" points="-1554.8922,4517.4257 -1358.2149,4517.4257 -1358.2149,4303.8502 -1276.0704,4303.8502 -1276.0704,4803.7578 -1358.2149,4803.7578 -1358.2149,4596.0498 -1554.8922,4596.0498 -1554.8922,4803.7578 -1637.0367,4803.7578 -1637.0367,4303.8502 -1554.8922,4303.8502 "/>
  <path class="fil0 str0" d="M-2075.336 4303.8502l39.5467 0 42.5978 0 114.8848 0c30.5109,0 57.3838,6.3368 80.6189,19.1279 23.2352,12.6738 41.1897,30.6282 53.9807,53.746 12.6737,23.2351 19.0106,49.9907 19.0106,80.5015l0 0c0,30.5108 -6.3369,57.2664 -19.0106,80.2669 -12.791,23.0004 -30.7455,40.8375 -53.9807,53.5112 -23.2351,12.5564 -50.108,18.8932 -80.6189,18.8932l-114.8848 0 0 193.8609 -82.1445 0 0 -499.9076zm82.1445 78.7413l0 148.5641 117.2319 0c13.3777,0 24.9954,-3.1684 34.97,-9.2706 9.9747,-6.2195 17.7197,-14.9033 23.3525,-26.1688 5.6328,-11.2656 8.4492,-24.0566 8.4492,-38.4906l0 0c0,-14.9033 -2.8164,-27.9291 -8.3318,-39.1946 -5.5155,-11.2655 -13.2605,-19.9494 -23.3525,-26.1689 -10.092,-6.2195 -21.7097,-9.2706 -35.0874,-9.2706l-117.2319 0z"/>
  <polygon class="fil0 str0" points="-2462.119,4303.8502 -2414.0058,4303.8502 -2168.1591,4303.8502 -2168.1591,4382.5915 -2414.0058,4382.5915 -2414.0058,4516.0176 -2205.9456,4516.0176 -2205.9456,4594.7589 -2414.0058,4594.7589 -2414.0058,4725.0165 -2168.1591,4725.0165 -2168.1591,4803.7578 -2414.0058,4803.7578 -2462.119,4803.7578 -2496.1503,4803.7578 -2496.1503,4303.8502 "/>
  <path class="fil0 str0" d="M-2761.5941 4808.9212c-32.5058,0 -61.1389,-5.3981 -85.7824,-16.3115 -24.6433,-10.9135 -44.3579,-26.6383 -59.3786,-47.2917 -15.0207,-20.6535 -24.6434,-45.5316 -28.7505,-74.6342l0 0 83.5525 0 0 0c3.8726,18.5412 13.7299,32.9752 29.5721,43.3019 15.8421,10.3268 36.0262,15.4901 60.7869,15.4901 25.4647,0 45.1794,-6.4542 59.1439,-19.5974 13.9646,-13.0256 21.0055,-31.5668 21.0055,-55.6235l0 -0.352c0,-22.531 -5.75,-39.8987 -17.3676,-52.3377 -11.6176,-12.3217 -27.9291,-18.5412 -48.9346,-18.5412l-76.7465 0 0 -78.7413 76.7465 0c18.5412,0 32.8578,-5.2808 42.9498,-15.8422 10.092,-10.4441 15.138,-25.3474 15.138,-44.5926l0 -3.1685c0,-20.4188 -6.1021,-35.9089 -18.3065,-46.5876 -12.0869,-10.6789 -29.5719,-15.9596 -52.2204,-15.9596 -21.1228,0 -38.8425,5.1635 -53.3938,15.2555 -14.5514,10.2093 -24.7607,24.7607 -30.5108,43.5365l0 0 -83.2006 0 0 0c5.7501,-29.1026 16.0768,-53.9806 30.7455,-74.7514 14.786,-20.7709 33.6792,-36.4957 56.5623,-47.2918 23.0004,-10.7961 48.9346,-16.1941 78.0372,-16.1941 34.0313,0 62.8992,5.0459 86.7211,15.0206 23.8219,9.9748 41.8936,24.6434 54.3326,44.1233 12.3217,19.48 18.5412,43.0672 18.5412,70.879l0 2.699c0,26.4035 -5.9847,49.2866 -18.0717,68.6493 -12.087,19.3626 -29.1026,33.5619 -51.0469,42.7151 24.7607,5.7501 43.8886,19.1279 57.2664,40.2508 13.3778,21.1229 20.0667,47.9958 20.0667,80.8536l0 0.352c0,30.3935 -6.5716,56.445 -19.5973,78.1546 -13.0258,21.7096 -32.1537,38.1385 -57.2665,49.5214 -25.1127,11.3829 -55.2715,17.0156 -90.5935,17.0156z"/>
  <path class="fil0 str0" d="M-3266.6481 4630.081l137.7495 0 -69 -198.6722 -68.7495 198.6722zm165.0968 78.7414l-192.3448 0 -32.8519 94.9354 -88.716 0 187.7588 -499.9076 59.7307 0 187.7588 499.9076 -88.364 0 -32.9716 -94.9354z"/>
  <path class="fil0 str0" d="M-3763.7564 4303.8502l35.0874 0 162.1766 0 37.1997 0 45.0621 0 0 499.9076 -82.2618 0 0 -421.1663 -162.1766 0 0 223.433c0,44.2405 -5.8675,80.9709 -17.3677,110.1908 -11.6176,29.22 -29.1026,51.1643 -52.4551,65.7156 -23.3525,14.5513 -52.5724,21.8269 -87.6599,21.8269l-6.9235 0 0 -78.7413 0 0c18.4238,0 33.5618,-4.4592 45.7662,-13.3778 12.0869,-8.9185 21.2402,-22.4137 27.3423,-40.3682 6.1021,-18.0717 9.0359,-40.7201 9.0359,-67.9451l0 -299.4752 47.1744 0z"/>
  <path class="fil0 str0" d="M2538.4978 3483.8625l44.7101 0 37.4344 0 0 500.2596 -82.1445 0 0 -195.9731 -57.9422 0 -115.2652 195.9731 -95.2876 0 120.2346 -198.2613c-17.1803,-2.8635 -32.8784,-8.4089 -47.126,-16.6051 -21.9443,-12.5563 -38.9599,-30.3934 -51.0469,-53.5112 -12.2043,-23.0004 -18.3065,-49.6387 -18.3065,-79.9148l0 0c0,-30.2761 6.1022,-56.797 18.0718,-79.6801 12.087,-23.0005 28.9853,-40.7202 50.9296,-53.3939 21.8269,-12.5564 47.1743,-18.8932 76.1596,-18.8932l119.5788 0zm0 225.5452l0 -146.8039 -115.4716 0c-12.439,0 -23.3524,3.051 -32.8578,9.1532 -9.5053,6.1022 -16.8982,14.6687 -22.0616,25.8169 -5.046,11.0308 -7.6277,23.8219 -7.6277,38.2558l0 0c0,14.6687 2.5817,27.5771 7.8624,38.7253 5.2807,11.1481 12.5563,19.7146 21.9443,25.8167 9.388,5.9849 20.3014,9.036 32.7404,9.036l115.4716 0z"/>
  <path class="fil0 str0" d="M1944.0238 3810.4453l137.7495 0 -69 -198.6722 -68.7495 198.6722zm165.0968 78.7414l-192.3448 0 -32.8519 94.9354 -88.716 0 187.7588 -499.9076 59.7307 0 187.7587 499.9076 -88.3639 0 -32.9716 -94.9354z"/>
  <polygon class="fil0 str0" points="1447.6196,3697.79 1644.2968,3697.79 1644.2968,3484.2145 1726.4413,3484.2145 1726.4413,3984.1221 1644.2968,3984.1221 1644.2968,3776.4141 1447.6196,3776.4141 1447.6196,3984.1221 1365.4751,3984.1221 1365.4751,3484.2145 1447.6196,3484.2145 "/>
  <polygon class="fil0 str0" points="969.7736,3697.79 1166.4508,3697.79 1166.4508,3484.2145 1248.5953,3484.2145 1248.5953,3984.1221 1166.4508,3984.1221 1166.4508,3776.4141 969.7736,3776.4141 969.7736,3984.1221 887.6291,3984.1221 887.6291,3484.2145 969.7736,3484.2145 "/>
  <path class="fil0 str0" d="M602.0011 3907.4931c18.7759,0 35.3222,-4.1072 49.6388,-12.439 14.3165,-8.2145 25.3474,-19.9494 33.2098,-35.0875 7.745,-15.138 11.6175,-32.623 11.6175,-52.5723l0 -146.4519c0,-19.9494 -3.8725,-37.5518 -11.6175,-52.8071 -7.8624,-15.138 -18.8933,-26.9904 -33.2098,-35.2048 -14.3166,-8.2145 -30.8629,-12.3216 -49.6388,-12.3216 -18.8932,0 -35.322,4.1071 -49.5213,12.3216 -14.1993,8.2144 -25.2301,20.0668 -33.0925,35.2048 -7.745,15.2553 -11.6176,32.8577 -11.6176,52.8071l0 146.4519c0,19.9493 3.8726,37.4343 11.6176,52.5723 7.8624,15.1381 18.8932,26.873 33.0925,35.0875 14.1993,8.3318 30.6281,12.439 49.5213,12.439zm0 81.7924c-35.5568,0 -66.889,-7.6277 -93.8794,-22.8831 -27.1076,-15.2554 -47.9958,-36.7303 -62.8991,-64.6594 -14.9034,-27.8118 -22.4137,-60.0828 -22.4137,-96.6958l0 -141.6404c0,-36.7303 7.5103,-69.0014 22.4137,-96.8132 14.9033,-27.8117 35.7915,-49.404 62.8991,-64.6594 26.9904,-15.2553 58.3226,-22.883 93.8794,-22.883 35.4395,0 66.7717,7.6277 93.9968,22.883 27.1076,15.2554 48.1131,36.8477 62.8991,64.6594 14.786,27.8118 22.179,60.0829 22.179,96.8132l0 141.6404c0,36.613 -7.393,68.884 -22.179,96.6958 -14.786,27.9291 -35.7915,49.404 -62.8991,64.6594 -27.2251,15.2554 -58.5573,22.8831 -93.9968,22.8831z"/>
  <polygon class="fil0 str0" points="19.949,3862.6978 231.9991,3484.2145 316.2558,3484.2145 316.2558,3983.7701 236.4584,3983.7701 236.4584,3610.9794 25.1125,3983.7701 -59.8484,3983.7701 -59.8484,3484.2145 19.949,3484.2145 "/>
  <polygon class="fil0 str0" points="-570.7869,3484.2145 -488.6424,3484.2145 -488.6424,3905.3808 -294.3121,3905.3808 -294.3121,3484.9186 -212.1677,3484.9186 -212.1677,3905.3808 -178.8405,3905.3808 -145.1613,3905.3808 -145.1613,4092.7875 -227.3057,4092.7875 -227.3057,3984.1221 -294.3121,3984.1221 -488.6424,3984.1221 -527.133,3984.1221 -570.7869,3984.1221 "/>
  <path class="fil0 str0" d="M-925.9859 3810.4453l137.7495 0 -69 -198.6722 -68.7495 198.6722zm165.0968 78.7414l-192.3448 0 -32.8519 94.9354 -88.7159 0 187.7587 -499.9076 59.7307 0 187.7588 499.9076 -88.364 0 -32.9716 -94.9354z"/>
  <path class="fil0 str0" d="M-1481.1821 3484.2145l41.3069 0 40.8376 0 118.288 0c32.271,0 59.6134,5.398 82.0271,16.1942 22.2963,10.7961 39.1946,26.2862 50.4601,46.5877 11.3829,20.3014 17.0157,44.4753 17.0157,72.7564l0 0c0,18.3065 -3.5205,34.9701 -10.5615,49.9908 -7.1582,15.0207 -17.837,27.5771 -32.0363,37.6691 -14.1992,10.0921 -31.4496,16.8983 -51.8683,20.5361 21.1229,3.0511 39.1946,9.9747 54.45,20.8882 15.2554,10.7961 26.873,24.7607 34.7353,41.5416 7.8625,16.8983 11.8523,35.6741 11.8523,56.5624l0 1.056c0,27.6945 -5.9848,51.8684 -17.837,72.4045 -11.9697,20.4188 -29.22,36.2609 -51.9857,47.1744 -22.6485,11.0308 -49.4041,16.5462 -80.3843,16.5462l-124.1554 0 -40.8376 0 -41.3069 0 0 -499.9076zm82.1445 77.6851l0 127.2067 115.2369 0c22.6484,0 40.0161,-5.5155 51.8683,-16.4289 11.9696,-11.0309 17.8371,-26.9904 17.8371,-47.8785l0 0c0,-20.5362 -6.2194,-36.261 -18.8931,-46.8224 -12.5565,-10.6787 -31.0976,-16.0769 -55.6236,-16.0769l-110.4256 0zm0 204.3051l0 139.8802 106.553 0c28.7506,0 49.9908,-5.9848 63.9554,-17.837 14.0819,-11.9696 21.0055,-28.868 21.0055,-50.5775l0 -1.0562c0,-14.6687 -2.699,-27.225 -8.2144,-37.7865 -5.5154,-10.5614 -13.9646,-18.6585 -25.4648,-24.2912 -11.5003,-5.5154 -25.6995,-8.3318 -42.5978,-8.3318l-115.2369 0z"/>
  <path class="fil0 str0" d="M-1766.81 3907.4931c18.7759,0 35.3221,-4.1072 49.6387,-12.439 14.3166,-8.2145 25.3474,-19.9494 33.2098,-35.0875 7.745,-15.138 11.6176,-32.623 11.6176,-52.5723l0 -146.4519c0,-19.9494 -3.8726,-37.5518 -11.6176,-52.8071 -7.8624,-15.138 -18.8932,-26.9904 -33.2098,-35.2048 -14.3166,-8.2145 -30.8628,-12.3216 -49.6387,-12.3216 -18.8932,0 -35.3221,4.1071 -49.5214,12.3216 -14.1992,8.2144 -25.23,20.0668 -33.0925,35.2048 -7.745,15.2553 -11.6175,32.8577 -11.6175,52.8071l0 146.4519c0,19.9493 3.8725,37.4343 11.6175,52.5723 7.8625,15.1381 18.8933,26.873 33.0925,35.0875 14.1993,8.3318 30.6282,12.439 49.5214,12.439zm0 81.7924c-35.5568,0 -66.8891,-7.6277 -93.8794,-22.8831 -27.1077,-15.2554 -47.9958,-36.7303 -62.8992,-64.6594 -14.9033,-27.8118 -22.4136,-60.0828 -22.4136,-96.6958l0 -141.6404c0,-36.7303 7.5103,-69.0014 22.4136,-96.8132 14.9034,-27.8117 35.7915,-49.404 62.8992,-64.6594 26.9903,-15.2553 58.3226,-22.883 93.8794,-22.883 35.4394,0 66.7717,7.6277 93.9967,22.883 27.1077,15.2554 48.1132,36.8477 62.8992,64.6594 14.786,27.8118 22.179,60.0829 22.179,96.8132l0 141.6404c0,36.613 -7.393,68.884 -22.179,96.6958 -14.786,27.9291 -35.7915,49.404 -62.8992,64.6594 -27.225,15.2554 -58.5573,22.8831 -93.9967,22.8831z"/>
  <polygon class="fil0 str0" points="-2331.3771,3697.79 -2134.6998,3697.79 -2134.6998,3484.2145 -2052.5553,3484.2145 -2052.5553,3984.1221 -2134.6998,3984.1221 -2134.6998,3776.4141 -2331.3771,3776.4141 -2331.3771,3984.1221 -2413.5216,3984.1221 -2413.5216,3484.2145 -2331.3771,3484.2145 "/>
  <polygon class="fil0 str0" points="-2809.2231,3697.79 -2612.5458,3697.79 -2612.5458,3484.2145 -2530.4013,3484.2145 -2530.4013,3984.1221 -2612.5458,3984.1221 -2612.5458,3776.4141 -2809.2231,3776.4141 -2809.2231,3984.1221 -2891.3676,3984.1221 -2891.3676,3484.2145 -2809.2231,3484.2145 "/>
  <polygon class="fil0 str0" points="-3304.5541,3862.6978 -3092.5041,3484.2145 -3008.2473,3484.2145 -3008.2473,3983.7701 -3088.0448,3983.7701 -3088.0448,3610.9794 -3299.3907,3983.7701 -3384.3516,3983.7701 -3384.3516,3484.2145 -3304.5541,3484.2145 "/>
 </g>
</svg>
