<?xml version="1.0" encoding="UTF-8"?>
<!DOCTYPE svg PUBLIC "-//W3C//DTD SVG 1.1//EN" "http://www.w3.org/Graphics/SVG/1.1/DTD/svg11.dtd">
<!-- Creator: CorelDRAW 2021 (64-Bit) -->
<svg xmlns="http://www.w3.org/2000/svg" xml:space="preserve" width="4022.21mm" height="1971.51mm" version="1.1" style="shape-rendering:geometricPrecision; text-rendering:geometricPrecision; image-rendering:optimizeQuality; fill-rule:evenodd; clip-rule:evenodd"
viewBox="0 0 4734 2320"
 xmlns:xlink="http://www.w3.org/1999/xlink"
 xmlns:xodm="http://www.corel.com/coreldraw/odm/2003">
 <defs>
  <style type="text/css">
   <![CDATA[
    .str1 {stroke:#2B2A29;stroke-width:0;stroke-miterlimit:22.9256}
    .str0 {stroke:#2B2A29;stroke-width:0;stroke-miterlimit:22.9256}
    .fil2 {fill:none}
    .fil0 {fill:none;fill-rule:nonzero}
    .fil1 {fill:white;fill-rule:nonzero}
   ]]>
  </style>
 </defs>
 <g id="Слой_x0020_1">
  <metadata id="CorelCorpID_0Corel-Layer"/>
  <polygon class="fil0 str0" points="243,1616 703,1616 703,2194 585,2194 585,1713 360,1713 360,2194 243,2194 "/>
  <path class="fil0 str0" d="M822 2194l0 -579 187 0c71,0 117,3 139,9 33,9 61,28 83,57 22,29 34,67 34,113 0,36 -6,65 -19,90 -13,24 -29,43 -49,57 -20,14 -40,23 -60,27 -28,6 -68,8 -121,8l-76 0 0 218 -117 0zm117 -481l0 165 64 0c46,0 77,-3 92,-9 15,-6 28,-15 36,-29 9,-13 13,-28 13,-45 0,-21 -6,-39 -18,-52 -12,-14 -28,-22 -47,-26 -14,-3 -42,-4 -84,-4l-56 0z"/>
  <path class="fil0 str0" d="M1326 1908c0,-59 9,-109 27,-149 13,-30 31,-56 54,-79 23,-23 48,-41 75,-52 36,-15 78,-23 125,-23 85,0 154,27 205,79 51,53 77,127 77,221 0,94 -25,167 -76,220 -51,53 -119,79 -204,79 -86,0 -155,-26 -205,-79 -51,-53 -76,-125 -76,-217zm120 -4c0,66 15,115 46,149 30,34 69,51 115,51 47,0 85,-17 115,-50 30,-34 45,-84 45,-151 0,-66 -15,-116 -44,-149 -29,-33 -68,-49 -116,-49 -48,0 -87,17 -117,50 -30,33 -44,83 -44,150z"/>
  <path class="fil0 str0" d="M2015 1616l399 0 0 481 51 0 0 224 -98 0 0 -126 -363 0 0 126 -98 0 0 -224 49 0c24,-49 40,-107 48,-172 8,-65 11,-148 11,-248l0 -61zm112 98c0,175 -16,303 -48,383l219 0 0 -383 -171 0z"/>
  <path class="fil0 str0" d="M2495 1616l132 0 135 300 115 -300 122 0 -196 440c-21,48 -43,84 -65,109 -22,25 -51,37 -86,37 -34,0 -61,-2 -81,-7l0 -87c17,1 32,2 45,2 27,0 46,-5 58,-15 12,-10 23,-31 34,-64l-213 -415z"/>
  <path class="fil0 str0" d="M3058 1616l117 0 0 247c26,-3 44,-9 53,-20 9,-11 23,-41 43,-90 24,-63 48,-102 73,-117 24,-15 63,-23 117,-23 3,0 8,0 17,0l0 86 -17 0c-24,0 -41,3 -53,9 -11,6 -20,15 -27,27 -7,12 -17,37 -30,75 -7,20 -15,37 -23,50 -8,13 -23,26 -44,38 26,7 47,22 64,45 17,22 36,54 56,95l79 158 -137 0 -69 -149c-1,-2 -3,-6 -7,-12 -1,-2 -6,-11 -15,-27 -15,-29 -27,-46 -36,-53 -10,-7 -24,-11 -44,-11l0 253 -117 0 0 -579z"/>
  <polygon class="fil0 str0" points="3700,2194 3700,1713 3529,1713 3529,1616 3988,1616 3988,1713 3818,1713 3818,2194 "/>
  <path class="fil0 str0" d="M4067 1616l117 0 0 231 156 0c41,0 76,6 106,17 30,11 54,31 74,60 20,29 30,62 30,99 0,39 -10,73 -31,101 -21,28 -43,47 -69,56 -25,9 -62,14 -110,14l-273 0 0 -579zm117 481l114 0c36,0 62,-2 76,-5 14,-4 27,-12 38,-24 11,-13 17,-28 17,-46 0,-26 -9,-45 -27,-58 -18,-13 -51,-19 -99,-19l-119 0 0 152z"/>
  <polygon class="fil0 str0" points="4617,1616 4734,1616 4734,2194 4617,2194 "/>
  <polygon class="fil1 str1" points="1419,1504 1419,1127 1751,1127 1751,1504 1669,1504 1669,1194 1500,1194 1500,1504 "/>
  <polygon class="fil1 str1" points="1904,1504 1904,1195 1787,1195 1787,1127 2104,1127 2104,1195 1986,1195 1986,1504 "/>
  <polygon class="fil1 str1" points="2140,1504 2140,1127 2397,1127 2397,1192 2218,1192 2218,1280 2384,1280 2384,1345 2218,1345 2218,1439 2397,1439 2397,1504 "/>
  <path class="fil1 str1" d="M2433 1504l0 -377 81 0 0 156 47 0 0 0 98 -156 89 0 -112 171 0 0c8,4 16,9 23,14 16,13 30,32 42,56l67 136 -88 0 -50 -107c-8,-17 -17,-29 -28,-36 -11,-7 -25,-10 -43,-10l-45 0 0 153 -81 0z"/>
  <path class="fil1 str1" d="M3130 1504l82 0 -171 -377 -68 0 -170 377 82 0 35 -82 175 0 35 82zm-123 -290l2 0 60 143 -121 0 59 -143z"/>
  <path class="fil1 str1" d="M1300 1504l82 0 -171 -377 -68 0 -170 377 82 0 35 -82 175 0 35 82zm-123 -290l2 0 60 143 -121 0 59 -143z"/>
  <path class="fil0 str1" d="M1150 187c-6,11 -14,19 -24,24 -10,5 -22,8 -35,8l-2 0 0 -146 2 0c20,0 36,6 49,18 12,12 19,30 19,55 0,16 -3,30 -9,41zm-157 24c-10,-5 -18,-14 -24,-24 -6,-11 -9,-24 -9,-41 0,-25 6,-43 19,-55 12,-12 29,-18 49,-18l2 0 0 146 -2 0c-13,0 -24,-3 -34,-8zm191 -152c-23,-20 -55,-29 -95,-30l0 -29 -59 0 0 29c-41,1 -72,10 -95,30 -23,20 -35,49 -35,87 0,25 5,46 16,64 11,17 26,31 46,40 19,9 42,13 68,14l0 31 59 0 0 -31c27,0 49,-5 68,-14 20,-9 35,-22 46,-40 11,-17 16,-39 16,-64 0,-38 -12,-67 -35,-87z"/>
  <polygon class="fil0 str1" points="1479,0 1330,192 1330,0 1270,0 1270,294 1317,294 1467,103 1467,294 1527,294 1527,0 "/>
  <polygon class="fil0 str1" points="1574,0 1574,53 1668,53 1668,294 1733,294 1733,53 1827,53 1827,0 "/>
  <path class="fil0 str1" d="M2070 216c-13,17 -31,25 -56,25 -25,0 -43,-8 -56,-25 -12,-17 -19,-40 -19,-69 0,-30 6,-53 19,-69 12,-16 31,-25 56,-25 25,0 43,8 56,25 13,16 19,39 19,69 0,29 -6,53 -19,69zm68 -147c-12,-22 -28,-39 -49,-51 -21,-12 -46,-18 -75,-18 -29,0 -54,6 -75,18 -21,12 -37,29 -48,51 -11,22 -17,48 -17,78 0,29 6,55 17,78 11,22 28,39 48,52 21,12 46,18 75,18 29,0 54,-6 75,-18 21,-12 37,-29 49,-52 11,-22 17,-48 17,-78 0,-29 -6,-55 -17,-77z"/>
  <path class="fil0 str1" d="M2452 187c-6,11 -14,19 -24,24 -10,5 -22,8 -35,8l-2 0 0 -146 2 0c20,0 36,6 49,18 12,12 19,30 19,55 0,16 -3,30 -9,41zm-157 24c-10,-5 -18,-14 -24,-24 -6,-11 -9,-24 -9,-41 0,-25 6,-43 19,-55 12,-12 29,-18 49,-18l2 0 0 146 -2 0c-13,0 -24,-3 -34,-8zm191 -152c-23,-20 -55,-29 -95,-30l0 -29 -59 0 0 29c-41,1 -72,10 -95,30 -23,20 -35,49 -35,87 0,25 5,46 16,64 11,17 26,31 46,40 19,9 42,13 68,14l0 31 59 0 0 -31c27,0 49,-5 68,-14 20,-9 35,-22 46,-40 11,-17 16,-39 16,-64 0,-38 -12,-67 -35,-87z"/>
  <path class="fil0 str1" d="M2729 68l2 0 48 112 -96 0 47 -112zm98 226l66 0 -136 -294 -54 0 -135 294 65 0 28 -64 139 0 28 64z"/>
  <path class="fil0 str1" d="M3103 119c-8,7 -19,10 -35,10l-64 0 0 -79 64 0c16,0 27,3 35,10 8,7 11,16 11,29 0,13 -4,23 -11,29zm48 -95c-17,-16 -42,-24 -76,-24l-137 0 0 294 65 0 0 -114 72 0c33,0 58,-8 76,-25 17,-16 26,-38 26,-66 0,-28 -9,-50 -26,-66z"/>
  <polygon class="fil0 str1" points="3472,0 3377,215 3281,0 3224,0 3224,294 3283,294 3283,133 3357,294 3395,294 3470,131 3470,294 3528,294 3528,0 "/>
  <polygon class="fil1 str1" points="1404,959 1404,536 1785,536 1785,959 1691,959 1691,611 1497,611 1497,959 "/>
  <polygon class="fil1 str1" points="1974,959 1974,612 1839,612 1839,536 2202,536 2202,612 2067,612 2067,959 "/>
  <polygon class="fil1 str1" points="2256,959 2256,536 2551,536 2551,608 2346,608 2346,708 2536,708 2536,781 2346,781 2346,887 2551,887 2551,959 "/>
  <path class="fil1 str1" d="M2605 959l0 -424 93 0 0 175 53 0 0 0 113 -175 102 0 -129 192 0 0c9,4 18,10 26,16 19,15 35,36 48,63l76 153 -101 0 -57 -120c-9,-19 -20,-33 -32,-41 -13,-8 -29,-12 -49,-12l-51 0 0 172 -93 0z"/>
  <path class="fil1 str1" d="M3417 959l94 0 -196 -424 -78 0 -195 424 94 0 40 -92 200 0 40 92zm-141 -326l2 0 69 161 -139 0 67 -161z"/>
  <path class="fil1 str1" d="M1255 959l94 0 -196 -424 -78 0 -195 424 94 0 40 -92 200 0 40 92zm-141 -326l2 0 69 161 -139 0 67 -161z"/>
  <path class="fil2 str1" d="M418 30c231,0 418,187 418,418 0,231 -187,418 -418,418 -231,0 -418,-187 -418,-418 0,-231 187,-418 418,-418z"/>
 </g>
</svg>
