<?xml version="1.0" encoding="UTF-8"?>
<!DOCTYPE svg PUBLIC "-//W3C//DTD SVG 1.1//EN" "http://www.w3.org/Graphics/SVG/1.1/DTD/svg11.dtd">
<!-- Creator: CorelDRAW 2021 (64-Bit) -->
<svg xmlns="http://www.w3.org/2000/svg" xml:space="preserve" width="13069.6mm" height="5448.37mm" version="1.1" style="shape-rendering:geometricPrecision; text-rendering:geometricPrecision; image-rendering:optimizeQuality; fill-rule:evenodd; clip-rule:evenodd"
viewBox="0 0 26524 11057"
 xmlns:xlink="http://www.w3.org/1999/xlink"
 xmlns:xodm="http://www.corel.com/coreldraw/odm/2003">
 <defs>
  <style type="text/css">
   <![CDATA[
    .str0 {stroke:#2B2A29;stroke-width:1;stroke-miterlimit:22.9256}
    .fil0 {fill:#FEFEFE;fill-rule:nonzero}
   ]]>
  </style>
 </defs>
 <g id="Слой_x0020_1">
  <metadata id="CorelCorpID_0Corel-Layer"/>
  <g id="_2363071111840">
   <path class="fil0 str0" d="M1918 944l-390 391 -390 -391c-216,-216 -216,-566 0,-781 215,-216 565,-216 780,0 215,216 215,566 0,781z"/>
   <path class="fil0 str0" d="M1138 2042l390 -391 390 391c216,216 216,566 0,782 -215,216 -565,216 -780,0 -215,-216 -215,-566 0,-782z"/>
   <path class="fil0 str0" d="M2076 1884l-390 -391 390 -391c215,-216 565,-216 780,0 216,216 216,566 0,782 -215,216 -565,216 -780,0z"/>
   <path class="fil0 str0" d="M980 1102l390 391 -390 391c-215,216 -565,216 -780,0 -216,-216 -216,-566 0,-782 215,-216 565,-216 780,0z"/>
   <polygon class="fil0 str0" points="5938,2700 5445,2700 5445,697 4561,697 4561,2700 4067,2700 4067,235 5938,235 "/>
   <polygon class="fil0 str0" points="25986,2700 26523,2700 25838,1794 26501,908 25950,908 25434,1636 25276,1636 25276,908 24815,908 24815,2700 25276,2700 25276,1994 25469,1994 "/>
   <polygon class="fil0 str0" points="13904,2700 14441,2700 13756,1794 14419,908 13868,908 13352,1636 13194,1636 13194,908 12732,908 12732,2700 13194,2700 13194,1994 13387,1994 "/>
   <path class="fil0 str0" d="M24079 1804c0,-290 -211,-494 -487,-494 -272,0 -483,204 -483,494 0,290 211,495 483,495 275,0 487,-204 487,-495zm-1431 0c0,-534 418,-946 944,-946 526,0 948,412 948,946 0,534 -422,946 -948,946 -526,0 -944,-412 -944,-946z"/>
   <path class="fil0 str0" d="M18955 1804c0,-534 401,-946 944,-946 350,0 655,186 801,462l-397 233c-72,-147 -225,-240 -408,-240 -276,0 -480,204 -480,491 0,283 204,487 480,487 186,0 340,-90 411,-236l401 229c-154,279 -458,466 -808,466 -544,0 -944,-412 -944,-946z"/>
   <path class="fil0 str0" d="M17230 478c0,-132 111,-244 243,-244 132,0 240,111 240,244 0,133 -107,240 -240,240 -132,0 -243,-108 -243,-240z"/>
   <path class="fil0 str0" d="M17910 478c0,-132 111,-244 243,-244 132,0 240,111 240,244 0,133 -107,240 -240,240 -132,0 -243,-108 -243,-240z"/>
   <path class="fil0 str0" d="M16196 1804c0,-301 -211,-505 -497,-505 -282,0 -493,204 -493,505 0,301 211,505 493,505 286,0 497,-204 497,-505zm461 0c0,534 -394,946 -873,946 -261,0 -451,-97 -579,-262l0 928 -462 0 0 -2508 462 0 0 211c129,-165 318,-262 579,-262 479,0 873,412 873,946z"/>
   <path class="fil0 str0" d="M9866 1804c0,-301 -211,-505 -497,-505 -282,0 -494,204 -494,505 0,301 211,505 494,505 286,0 497,-204 497,-505zm461 0c0,534 -394,946 -873,946 -261,0 -451,-97 -580,-262l0 928 -462 0 0 -2508 462 0 0 211c129,-165 318,-262 580,-262 479,0 873,412 873,946z"/>
   <path class="fil0 str0" d="M7629 1636c-57,-258 -250,-362 -444,-362 -247,0 -415,132 -469,362l912 0zm-401 695c179,0 322,-75 401,-179l372 215c-168,244 -436,383 -780,383 -601,0 -980,-412 -980,-946 0,-534 383,-946 944,-946 529,0 905,419 905,946 0,68 -7,129 -18,190l-1349 0c64,236 261,337 504,337z"/>
   <polygon class="fil0 str0" points="22497,908 20913,908 20913,1353 21474,1353 21474,2700 21936,2700 21936,1353 22497,1353 "/>
   <path class="fil0 str0" d="M18278 1636c-57,-258 -250,-362 -444,-362 -247,0 -415,132 -469,362l912 0zm-401 695c179,0 322,-75 401,-179l372 215c-168,244 -436,383 -780,383 -601,0 -980,-412 -980,-946 0,-534 383,-946 944,-946 529,0 905,419 905,946 0,68 -7,129 -18,190l-1349 0c64,236 261,337 504,337z"/>
   <path class="fil0 str0" d="M11949 1636c-57,-258 -250,-362 -444,-362 -247,0 -415,132 -469,362l912 0zm-401 695c179,0 322,-75 401,-179l372 215c-168,244 -436,383 -780,383 -601,0 -980,-412 -980,-946 0,-534 383,-946 944,-946 529,0 905,419 905,946 0,68 -7,129 -18,190l-1349 0c64,236 261,337 504,337z"/>
  </g>
  <g id="_2363071129936">
   <path class="fil0 str0" d="M1881 5084l-390 391 -390 -391c-216,-216 -216,-566 0,-781 215,-216 565,-216 780,0 215,216 215,566 0,781z"/>
   <path class="fil0 str0" d="M1100 6182l390 -391 390 391c216,216 216,566 0,782 -215,216 -565,216 -780,0 -215,-216 -215,-566 0,-782z"/>
   <path class="fil0 str0" d="M2039 6024l-390 -391 390 -391c215,-216 565,-216 780,0 216,216 216,566 0,782 -215,216 -565,216 -780,0z"/>
   <path class="fil0 str0" d="M942 5242l390 391 -390 391c-215,216 -565,216 -780,0 -216,-216 -216,-566 0,-782 215,-216 565,-216 780,0z"/>
   <polygon class="fil0 str0" points="5901,6840 5407,6840 5407,4837 4524,4837 4524,6840 4030,6840 4030,4374 5901,4374 "/>
   <polygon class="fil0 str0" points="25948,6840 26485,6840 25800,5933 26463,5048 25913,5048 25396,5776 25239,5776 25239,5048 24777,5048 24777,6840 25239,6840 25239,6134 25432,6134 "/>
   <polygon class="fil0 str0" points="13866,6840 14403,6840 13718,5933 14381,5048 13831,5048 13314,5776 13156,5776 13156,5048 12695,5048 12695,6840 13156,6840 13156,6134 13350,6134 "/>
   <path class="fil0 str0" d="M24041 5944c0,-290 -211,-494 -487,-494 -272,0 -483,204 -483,494 0,290 211,495 483,495 275,0 487,-204 487,-495zm-1431 0c0,-534 418,-946 944,-946 526,0 948,412 948,946 0,534 -422,946 -948,946 -526,0 -944,-412 -944,-946z"/>
   <path class="fil0 str0" d="M18918 5944c0,-534 401,-946 944,-946 350,0 655,186 801,462l-397 233c-72,-147 -225,-240 -408,-240 -276,0 -480,204 -480,491 0,283 204,487 480,487 186,0 340,-90 411,-236l401 229c-154,279 -458,466 -808,466 -544,0 -944,-412 -944,-946z"/>
   <path class="fil0 str0" d="M17193 4618c0,-132 111,-244 243,-244 132,0 240,111 240,244 0,133 -107,240 -240,240 -132,0 -243,-108 -243,-240z"/>
   <path class="fil0 str0" d="M17872 4618c0,-132 111,-244 243,-244 132,0 240,111 240,244 0,133 -107,240 -240,240 -132,0 -243,-108 -243,-240z"/>
   <path class="fil0 str0" d="M16158 5944c0,-301 -211,-505 -497,-505 -282,0 -493,204 -493,505 0,301 211,505 493,505 286,0 497,-204 497,-505zm461 0c0,534 -394,946 -873,946 -261,0 -451,-97 -579,-262l0 928 -462 0 0 -2508 462 0 0 211c129,-165 318,-262 579,-262 479,0 873,412 873,946z"/>
   <path class="fil0 str0" d="M9828 5944c0,-301 -211,-505 -497,-505 -282,0 -494,204 -494,505 0,301 211,505 494,505 286,0 497,-204 497,-505zm461 0c0,534 -394,946 -873,946 -261,0 -451,-97 -580,-262l0 928 -462 0 0 -2508 462 0 0 211c129,-165 318,-262 580,-262 479,0 873,412 873,946z"/>
   <path class="fil0 str0" d="M7592 5775c-57,-258 -250,-362 -444,-362 -247,0 -415,132 -469,362l912 0zm-401 695c179,0 322,-75 401,-179l372 215c-168,244 -436,383 -780,383 -601,0 -980,-412 -980,-946 0,-534 383,-946 944,-946 529,0 905,419 905,946 0,68 -7,129 -18,190l-1349 0c64,236 261,337 504,337z"/>
   <polygon class="fil0 str0" points="22460,5048 20875,5048 20875,5492 21437,5492 21437,6840 21898,6840 21898,5492 22460,5492 "/>
   <path class="fil0 str0" d="M18241 5775c-57,-258 -250,-362 -444,-362 -247,0 -415,132 -469,362l912 0zm-401 695c179,0 322,-75 401,-179l372 215c-168,244 -436,383 -780,383 -601,0 -980,-412 -980,-946 0,-534 383,-946 944,-946 529,0 905,419 905,946 0,68 -7,129 -18,190l-1349 0c64,236 261,337 504,337z"/>
   <path class="fil0 str0" d="M11911 5775c-57,-258 -250,-362 -444,-362 -247,0 -415,132 -469,362l912 0zm-401 695c179,0 322,-75 401,-179l372 215c-168,244 -436,383 -780,383 -601,0 -980,-412 -980,-946 0,-534 383,-946 944,-946 529,0 905,419 905,946 0,68 -7,129 -18,190l-1349 0c64,236 261,337 504,337z"/>
  </g>
  <g id="_2363071137712">
   <path class="fil0 str0" d="M9243 9955l-174 174 -174 -174c-96,-96 -96,-252 0,-348 96,-96 252,-96 348,0 96,96 96,252 0,348z"/>
   <path class="fil0 str0" d="M8895 10444l174 -174 174 174c96,96 96,252 0,348 -96,96 -252,96 -348,0 -96,-96 -96,-252 0,-348z"/>
   <path class="fil0 str0" d="M9313 10373l-174 -174 174 -174c96,-96 252,-96 348,0 96,96 96,252 0,348 -96,96 -252,96 -348,0z"/>
   <path class="fil0 str0" d="M8825 10025l174 174 -174 174c-96,96 -252,96 -348,0 -96,-96 -96,-252 0,-348 96,-96 252,-96 348,0z"/>
   <polygon class="fil0 str0" points="11034,10737 10814,10737 10814,9845 10420,9845 10420,10737 10200,10737 10200,9639 11034,9639 "/>
   <polygon class="fil0 str0" points="19966,10737 20205,10737 19900,10333 20195,9939 19950,9939 19720,10263 19650,10263 19650,9939 19444,9939 19444,10737 19650,10737 19650,10423 19736,10423 "/>
   <polygon class="fil0 str0" points="14583,10737 14822,10737 14517,10333 14812,9939 14567,9939 14337,10263 14267,10263 14267,9939 14061,9939 14061,10737 14267,10737 14267,10423 14353,10423 "/>
   <path class="fil0 str0" d="M19116 10338c0,-129 -94,-220 -217,-220 -121,0 -215,91 -215,220 0,129 94,220 215,220 123,0 217,-91 217,-220zm-638 0c0,-238 186,-421 421,-421 234,0 422,184 422,421 0,238 -188,422 -422,422 -234,0 -421,-184 -421,-422z"/>
   <path class="fil0 str0" d="M16834 10338c0,-238 178,-421 421,-421 156,0 292,83 357,206l-177 104c-32,-65 -100,-107 -182,-107 -123,0 -214,91 -214,219 0,126 91,217 214,217 83,0 151,-40 183,-105l178 102c-68,124 -204,208 -360,208 -242,0 -421,-184 -421,-422z"/>
   <path class="fil0 str0" d="M16065 9747c0,-59 49,-109 108,-109 59,0 107,50 107,109 0,59 -48,107 -107,107 -59,0 -108,-48 -108,-107z"/>
   <path class="fil0 str0" d="M16368 9747c0,-59 49,-109 108,-109 59,0 107,50 107,109 0,59 -48,107 -107,107 -59,0 -108,-48 -108,-107z"/>
   <path class="fil0 str0" d="M15604 10338c0,-134 -94,-225 -222,-225 -126,0 -220,91 -220,225 0,134 94,225 220,225 127,0 222,-91 222,-225zm206 0c0,238 -175,422 -389,422 -116,0 -201,-43 -258,-117l0 413 -206 0 0 -1117 206 0 0 94c57,-73 142,-117 258,-117 214,0 389,184 389,421z"/>
   <path class="fil0 str0" d="M12784 10338c0,-134 -94,-225 -222,-225 -126,0 -220,91 -220,225 0,134 94,225 220,225 127,0 222,-91 222,-225zm206 0c0,238 -175,422 -389,422 -116,0 -201,-43 -258,-117l0 413 -206 0 0 -1117 206 0 0 94c57,-73 142,-117 258,-117 214,0 389,184 389,421z"/>
   <path class="fil0 str0" d="M11787 10263c-25,-115 -112,-161 -198,-161 -110,0 -185,59 -209,161l406 0zm-178 310c80,0 143,-34 178,-80l166 96c-75,109 -194,171 -347,171 -268,0 -437,-184 -437,-422 0,-238 171,-421 421,-421 236,0 403,187 403,421 0,30 -3,58 -8,85l-601 0c29,105 116,150 225,150z"/>
   <polygon class="fil0 str0" points="18412,9939 17706,9939 17706,10137 17956,10137 17956,10737 18161,10737 18161,10137 18412,10137 "/>
   <path class="fil0 str0" d="M16532 10263c-25,-115 -112,-161 -198,-161 -110,0 -185,59 -209,161l406 0zm-178 310c80,0 143,-34 178,-80l166 96c-75,109 -194,171 -347,171 -268,0 -437,-184 -437,-422 0,-238 171,-421 421,-421 236,0 403,187 403,421 0,30 -3,58 -8,85l-601 0c29,105 116,150 225,150z"/>
   <path class="fil0 str0" d="M13712 10263c-25,-115 -112,-161 -198,-161 -110,0 -185,59 -209,161l406 0zm-178 310c80,0 143,-34 178,-80l166 96c-75,109 -194,171 -347,171 -268,0 -437,-184 -437,-422 0,-238 171,-421 421,-421 236,0 403,187 403,421 0,30 -3,58 -8,85l-601 0c29,105 116,150 225,150z"/>
  </g>
 </g>
</svg>
