<?xml version="1.0" encoding="UTF-8"?>
<!DOCTYPE svg PUBLIC "-//W3C//DTD SVG 1.1//EN" "http://www.w3.org/Graphics/SVG/1.1/DTD/svg11.dtd">
<!-- Creator: CorelDRAW 2021 (64-Bit) -->
<svg xmlns="http://www.w3.org/2000/svg" xml:space="preserve" width="210mm" height="297mm" version="1.1" style="shape-rendering:geometricPrecision; text-rendering:geometricPrecision; image-rendering:optimizeQuality; fill-rule:evenodd; clip-rule:evenodd"
viewBox="0 0 210 297"
 xmlns:xlink="http://www.w3.org/1999/xlink"
 xmlns:xodm="http://www.corel.com/coreldraw/odm/2003">
 <defs>
  <style type="text/css">
   <![CDATA[
    .str0 {stroke:#2B2A29;stroke-width:0.2;stroke-miterlimit:22.9256}
    .str1 {stroke:#2B2A29;stroke-width:0.0762;stroke-miterlimit:22.9256}
    .fil0 {fill:#FEFEFE;fill-rule:nonzero}
   ]]>
  </style>
 </defs>
 <g id="Слой_x0020_1">
  <metadata id="CorelCorpID_0Corel-Layer"/>
  <path class="fil0 str0" d="M-1899.7542 -1627.8222c43.4141,0 78.6119,-49.7019 78.6119,-110.9459 0,-61.335 -35.1978,-111.0369 -78.6119,-111.0369 -43.465,0 -78.6518,49.7019 -78.6518,111.0369 0,61.244 35.1868,110.9459 78.6518,110.9459z"/>
  <path class="fil0 str0" d="M-1978.2678 -1528.2984c-30.7293,30.7184 -20.5007,90.7944 22.8624,134.1685 43.3631,43.2976 103.3882,53.5553 134.1175,22.8259 30.7185,-30.6929 20.4644,-90.7434 -22.9133,-134.1066 -43.2976,-43.3231 -103.3336,-53.5953 -134.0666,-22.8878z"/>
  <path class="fil0 str0" d="M-1899.7542 -1271.751c-43.465,0 -78.6518,49.6764 -78.6518,110.9859 0,61.295 35.1868,110.9604 78.6518,110.9604 43.4141,0 78.6119,-49.6654 78.6119,-110.9604 0,-61.3095 -35.1978,-110.9859 -78.6119,-110.9859z"/>
  <path class="fil0 str0" d="M-1581.0422 -1683.1787c43.3886,-43.3122 53.5917,-103.4246 22.8733,-134.0921 -30.693,-30.7184 -90.7144,-20.4753 -134.1176,22.8878 -43.3376,43.334 -53.5152,103.3736 -22.8478,134.0921 30.7185,30.7439 90.7544,20.4498 134.0921,-22.8878z"/>
  <path class="fil0 str0" d="M-1636.6243 -1560.778c-43.4286,0 -78.6664,49.7019 -78.6664,110.9859 0,61.3095 35.2378,111.0114 78.6664,111.0114 43.4505,0 78.6373,-49.7019 78.6373,-111.0114 0,-61.284 -35.1868,-110.9859 -78.6373,-110.9859z"/>
  <path class="fil0 str0" d="M-1715.127 -1239.2969c-30.6929,30.7585 -20.5008,90.8345 22.8769,134.1576 43.3632,43.3122 103.3736,53.5407 134.0921,22.8223 30.7184,-30.6784 20.4862,-90.7544 -22.8624,-134.0921 -43.374,-43.3231 -103.3991,-53.5808 -134.1066,-22.8878z"/>
  <path class="fil0 str0" d="M-1373.4471 -1627.8222c43.3631,0 78.6118,-49.7019 78.6118,-110.9459 0,-61.335 -35.2487,-111.0369 -78.6118,-111.0369 -43.4651,0 -78.7429,49.7019 -78.7429,111.0369 0,61.244 35.2778,110.9459 78.7429,110.9459z"/>
  <path class="fil0 str0" d="M-1317.865 -1394.1408c43.3267,-43.3741 53.5298,-103.4101 22.8623,-134.1176 -30.6784,-30.7293 -90.7798,-20.4753 -134.1029,22.8369 -43.3377,43.3886 -53.5808,103.45 -22.877,134.1175 30.7076,30.7185 90.7835,20.4644 134.1176,-22.8368z"/>
  <path class="fil0 str0" d="M-1373.4471 -1271.751c-43.4651,0 -78.7429,49.6764 -78.7429,110.9859 0,61.295 35.2778,110.9604 78.7429,110.9604 43.3631,0 78.6118,-49.6654 78.6118,-110.9604 0,-61.3095 -35.2487,-110.9859 -78.6118,-110.9859z"/>
  <path class="fil0 str0" d="M-871.9023 -1601.5346c43.1587,-19.106 74.9899,-58.6976 74.9899,-109.9442 0,-84.6357 -66.4761,-138.5795 -157.671,-138.5795 -108.186,0 -161.2162,63.5132 -161.8859,139.9809l96.8331 0c2.0929,-31.4345 28.9702,-49.1427 64.3321,-49.1427 38.1756,0 61.5222,21.8141 61.5222,60.0443 0,35.5185 -23.3466,56.7029 -62.8835,56.7029l-42.4525 0 0 90.8126 49.4521 0c52.3531,0 72.8605,34.1062 72.8605,67.5681 0,33.451 -21.239,64.8599 -79.8601,64.8599 -65.7845,0 -79.9584,-45.7139 -79.9584,-72.3473l-96.8076 0c-7.1015,103.0866 73.4757,163.1818 173.1588,163.1818 106.104,0 180.3113,-55.9858 180.3113,-148.8513 0,-71.663 -43.8502,-112.7033 -91.941,-124.2855z"/>
  <polygon class="fil0 str0" points="-665.7112,-1318.9122 -352.7935,-1318.9122 -352.7935,-1409.7358 -568.8781,-1409.7358 -568.8781,-1525.8278 -360.5356,-1525.8278 -360.5356,-1616.6514 -568.8781,-1616.6514 -568.8781,-1733.4131 -352.7935,-1733.4131 -352.7935,-1824.2112 -665.7112,-1824.2112 "/>
  <path class="fil0 str0" d="M-115.994 -1617.9107l-57.2598 0 0 -132.468 57.2598 0c25.4358,0 82.721,4.1349 82.721,66.2322 0,62.1373 -57.2852,66.2358 -82.721,66.2358zm179.5651 -65.4896c0,-47.8469 -19.7612,-157.7765 -187.3619,-157.7765l-146.3471 0 0 505.3026 96.8841 0 0 -191.2129 49.463 0c151.9854,0 187.3619,-92.8401 187.3619,-156.3132z"/>
  <polygon class="fil0 str0" points="419.3344,-1638.378 228.4673,-1638.378 228.4673,-1841.1732 131.6596,-1841.1732 131.6596,-1335.8705 228.4673,-1335.8705 228.4673,-1547.6054 419.3344,-1547.6054 419.3344,-1335.8705 516.2184,-1335.8705 516.2184,-1841.1732 419.3344,-1841.1732 "/>
  <path class="fil0 str0" d="M866.3689 -1414.4021c-101.1355,0 -178.1673,-77.8545 -178.1673,-173.4537 0,-94.2378 76.3512,-171.3752 178.8844,-171.3752 102.4968,0 178.848,77.1374 178.848,171.3752 0,94.1869 -75.6195,173.4537 -179.5651,173.4537zm276.3983 -171.4262c0,-146.1142 -119.4954,-264.2373 -275.6812,-264.2373 -156.2732,0 -275.7321,118.1231 -275.7321,264.2373 0,146.1178 120.1541,262.1734 275.7321,262.1734 155.5052,0 275.6812,-116.0556 275.6812,-262.1734z"/>
  <path class="fil0 str0" d="M-1021.4416 -1071.5241l-47.3155 0c10.2719,-21.057 12.8016,-44.2871 12.8016,-74.4366l34.5139 0 0 74.4366zm24.2565 -96.1525l-82.8485 0 0 18.6838c0,19.379 -1.1793,35.1982 -3.7091,47.1517 -2.5297,11.9572 -6.4099,22.0616 -11.7897,30.317l-11.6187 0 0 45.7903 22.7387 0 0 -24.0745 80.6536 0 0 24.0745 22.7277 0 0 -45.7903 -16.154 0 0 -96.1525z"/>
  <path class="fil0 str0" d="M-929.6498 -1133.1554c-0.3313,23.907 -1.6817,40.2431 -3.8765,48.8333 -2.184,8.5902 -6.3954,12.9545 -12.7908,12.9545 -3.3742,0 -6.2279,-0.4987 -8.5902,-1.3358l0 21.8832c2.3623,1.0156 5.7292,1.5142 9.9406,1.5142 13.9847,0 23.5759,-5.2123 29.1231,-15.6517 5.5728,-10.6213 8.5903,-29.6363 9.4384,-57.0923l0.6661 -23.9071 35.7114 0 0 96.1525 24.0745 0 0 -117.8683 -83.1943 0 -0.5023 34.5175z"/>
  <path class="fil0 str0" d="M-726.7163 -1146.4594l0 28.6208 -28.9666 0c-10.9417,0 -17.5045,-5.0449 -17.5045,-14.3159 0,-8.9251 6.5628,-14.3049 17.5045,-14.3049l28.9666 0zm-59.9534 -11.4549c-7.2289,6.3954 -10.9416,14.8182 -10.9416,25.0901 0,15.6517 9.1071,27.9547 24.5914,32.6684l-36.8907 50.3475 27.9546 0 34.6959 -47.6503 20.5438 0 0 47.6503 24.2565 0 0 -117.8646 -54.559 0c-12.4704,0 -22.3965,3.1958 -29.6509,9.7586z"/>
  <polygon class="fil0 str0" points="-609.1538,-1145.9571 -571.9392,-1145.9571 -571.9392,-1049.8046 -547.6972,-1049.8046 -547.6972,-1145.9571 -510.3151,-1145.9571 -510.3151,-1167.6729 -609.1538,-1167.6729 "/>
  <polygon class="fil0 str0" points="-447.8284,-1101.8447 -397.6447,-1101.8447 -397.6447,-1123.2257 -447.8284,-1123.2257 -447.8284,-1145.9644 -385.5091,-1145.9644 -385.5091,-1167.6802 -472.0704,-1167.6802 -472.0704,-1049.801 -383.6601,-1049.801 -383.6601,-1071.5277 -447.8284,-1071.5277 "/>
  <polygon class="fil0 str0" points="-242.8748,-1167.6802 -270.8295,-1167.6802 -295.9195,-1132.4966 -320.6783,-1167.6802 -348.9679,-1167.6802 -310.057,-1113.2996 -356.0403,-1049.801 -328.0856,-1049.801 -296.2544,-1093.7532 -264.2557,-1049.801 -235.9662,-1049.801 -281.7711,-1113.4525 "/>
  <polygon class="fil0 str0" points="-213.7189,-1024.2086 -194.1871,-1024.2086 -173.8216,-1075.2405 -199.2466,-1075.2405 "/>
  <polygon class="fil0 str0" points="26.0798,-1167.6802 -3.5566,-1167.6802 -46.9955,-1121.2092 -46.9955,-1167.6802 -71.252,-1167.6802 -71.252,-1049.801 -46.9955,-1049.801 -46.9955,-1104.2071 3.6869,-1049.801 34.67,-1049.801 -23.9329,-1113.6308 "/>
  <polygon class="fil0 str0" points="58.2604,-1145.9571 95.4714,-1145.9571 95.4714,-1049.8046 119.7279,-1049.8046 119.7279,-1145.9571 157.1064,-1145.9571 157.1064,-1167.6729 58.2604,-1167.6729 "/>
  <path class="fil0 str0" d="M269.6058 -1081.1262c-6.8941,7.2398 -15.4843,10.9525 -25.9382,10.9525 -10.4248,0 -19.197,-3.7127 -26.091,-10.9525 -6.9086,-7.2326 -10.2865,-16.5035 -10.2865,-27.6089 0,-11.12 3.3779,-20.38 10.2865,-27.6198 6.894,-7.2435 15.6662,-10.9417 26.091,-10.9417 10.4539,0 19.0441,3.6982 25.9382,10.9417 6.9086,7.2398 10.4393,16.4998 10.4393,27.6198 0,11.1054 -3.5307,20.3763 -10.4393,27.6089zm-25.9382 -88.9127c-17.5153,0 -32.1515,5.8931 -43.7738,17.8503 -11.6223,11.7861 -17.3479,26.273 -17.3479,43.4535 0,17.0021 5.7256,31.4854 17.3479,43.4389 11.6223,11.9572 26.2585,17.8502 43.7738,17.8502 17.5299,0 32.0132,-5.893 43.621,-17.8502 11.6223,-11.9535 17.5153,-26.4368 17.5153,-43.4389 0,-17.1805 -5.893,-31.6674 -17.5153,-43.4535 -11.6078,-11.9572 -26.0911,-17.8503 -43.621,-17.8503z"/>
  <path class="fil0 str0" d="M464.9645 -1070.6833l-30.4844 0 0 -30.8156 30.4844 0c11.9681,0 19.197,5.5581 19.197,15.4988 0,9.9261 -7.2289,15.3168 -19.197,15.3168zm-30.4844 -76.788l27.2886 0c10.1044,0 16.1649,4.8812 16.1649,13.1365 0,8.077 -6.0605,12.7907 -16.1649,12.7907l-27.2886 0 0 -25.9272zm52.0438 32.6538c8.0915,-3.3487 14.8181,-11.4403 14.8181,-23.3938 0,-18.8621 -14.1484,-29.4689 -35.6968,-29.4689l-55.407 0 0 117.8792 59.2726 0c12.4668,0 22.4074,-3.0321 29.8183,-9.2709 7.4073,-6.217 11.1055,-14.3049 11.1055,-24.231 0,-8.5903 -2.3623,-15.4989 -7.0761,-21.0607 -4.71,-5.5582 -10.2718,-9.0925 -16.8346,-10.4539z"/>
  <polygon class="fil0 str0" points="614.3546,-1049.8046 638.6111,-1049.8046 638.6111,-1145.9571 688.9587,-1145.9571 688.9587,-1049.8046 713.0368,-1049.8046 713.0368,-1167.6838 614.3546,-1167.6838 "/>
  <path class="fil0 str0" d="M804.6575 -1109.758l-29.8037 -57.9222 -26.7717 0 44.6073 82.3462c-3.1958,6.3954 -6.2279,10.7742 -9.0889,12.9581 -2.85,2.1949 -6.9086,3.3779 -11.7897,3.3779 -5.2124,0 -9.7587,-1.0046 -13.6352,-3.1995l0 21.381c3.7091,2.1948 9.6058,3.3778 17.8611,3.3778 15.9866,0 28.2896,-9.2709 37.0327,-27.9547l43.4535 -92.2868 -25.7707 0 -26.0947 57.9222z"/>
  <polygon class="fil0 str0" points="882.9707,-1145.9571 920.1853,-1145.9571 920.1853,-1049.8046 944.4418,-1049.8046 944.4418,-1145.9571 981.8203,-1145.9571 981.8203,-1167.6729 882.9707,-1167.6729 "/>
  <polygon class="fil0 str0" points="1044.3106,-1090.8958 1044.3106,-1167.6729 1020.0541,-1167.6729 1020.0541,-1049.8046 1040.4305,-1049.8046 1098.1889,-1127.095 1098.1889,-1049.8046 1122.2671,-1049.8046 1122.2671,-1167.6729 1101.3884,-1167.6729 "/>
  <polygon class="fil0 str1" points="1304.5137,-1445.3006 1391.9934,-1360.8796 1391.9934,-1514.6981 1304.5137,-1599.1009 "/>
  <polygon class="fil0 str1" points="1304.5137,-1228.2347 1369.861,-1165.1404 1369.861,-1046.0498 1391.9934,-1046.0498 1391.9934,-1297.5811 1304.5137,-1382.0131 "/>
  <polygon class="fil0 str1" points="1369.861,-1747.8047 1304.5174,-1810.888 1304.5174,-1657.0731 1391.997,-1572.6558 1391.997,-1846.0498 1369.861,-1846.0498 "/>
  <polygon class="fil0 str1" points="1410.5421,-1360.8759 1497.9452,-1445.2933 1497.9452,-1599.0973 1410.5421,-1514.6908 "/>
  <polygon class="fil0 str1" points="1410.5421,-1046.0498 1432.6235,-1046.0498 1432.6235,-1165.1148 1497.9452,-1228.2347 1497.9452,-1382.0131 1410.5421,-1297.5811 "/>
  <polygon class="fil0 str1" points="1497.9307,-1810.8917 1432.6235,-1747.7719 1432.6235,-1846.0425 1410.5421,-1846.0425 1410.5421,-1572.6594 1497.9307,-1657.0768 "/>
  <polygon class="fil0 str1" points="1569.4426,-1445.3006 1656.9624,-1360.8796 1656.9624,-1514.6981 1569.4426,-1599.1009 "/>
  <polygon class="fil0 str1" points="1569.4426,-1228.2347 1634.8263,-1165.1148 1634.8263,-1046.0498 1656.9624,-1046.0498 1656.9624,-1297.5811 1569.4426,-1382.0131 "/>
  <polygon class="fil0 str1" points="1656.9441,-1846.0461 1634.8227,-1846.0461 1634.8227,-1747.7755 1569.439,-1810.899 1569.439,-1657.0804 1656.9441,-1572.6485 "/>
  <polygon class="fil0 str1" points="1675.4309,-1360.8759 1762.9106,-1445.2933 1762.9106,-1599.0973 1675.4309,-1514.6908 "/>
  <polygon class="fil0 str1" points="1675.4309,-1046.0498 1697.5925,-1046.0498 1697.5925,-1165.1659 1762.9106,-1228.2347 1762.9106,-1382.0131 1675.4309,-1297.5811 "/>
  <polygon class="fil0 str1" points="1762.9106,-1810.8917 1697.5889,-1747.8338 1697.5889,-1846.0425 1675.4164,-1846.0425 1675.4164,-1572.6594 1762.9106,-1657.0768 "/>
  <polygon class="fil0 str1" points="1834.3715,-1445.3006 1921.8621,-1360.8796 1921.8621,-1514.6981 1834.3715,-1599.1009 "/>
  <polygon class="fil0 str1" points="1834.3715,-1228.2347 1899.7297,-1165.1404 1899.7297,-1046.0498 1921.8621,-1046.0498 1921.8621,-1297.5811 1834.3715,-1382.0131 "/>
  <polygon class="fil0 str1" points="1899.7443,-1747.8047 1834.3715,-1810.888 1834.3715,-1657.0731 1921.8621,-1572.6558 1921.8621,-1846.0498 1899.7443,-1846.0498 "/>
  <polygon class="fil0 str1" points="1940.3999,-1514.6908 1940.3999,-1360.8759 2027.8395,-1445.2933 2027.8395,-1599.0973 "/>
  <polygon class="fil0 str1" points="1940.3999,-1046.0498 1962.5177,-1046.0498 1962.5177,-1165.1513 2027.8395,-1228.2347 2027.8395,-1382.0131 1940.3999,-1297.5811 "/>
  <polygon class="fil0 str1" points="2027.8358,-1810.8917 1962.5177,-1747.8083 1962.5177,-1846.0425 1940.3963,-1846.0425 1940.3963,-1572.6594 2027.8358,-1657.0768 "/>
 </g>
</svg>
