<?xml version="1.0" encoding="UTF-8"?>
<!DOCTYPE svg PUBLIC "-//W3C//DTD SVG 1.1//EN" "http://www.w3.org/Graphics/SVG/1.1/DTD/svg11.dtd">
<!-- Creator: CorelDRAW 2021 (64-Bit) -->
<svg xmlns="http://www.w3.org/2000/svg" xml:space="preserve" width="5071" height="3117.79" version="1.1" style="shape-rendering:geometricPrecision; text-rendering:geometricPrecision; image-rendering:optimizeQuality; fill-rule:evenodd; clip-rule:evenodd"
viewBox="0 0 1545 950"
 xmlns:xlink="http://www.w3.org/1999/xlink"
 xmlns:xodm="http://www.corel.com/coreldraw/odm/2003">
 <defs>
  <style type="text/css">
   <![CDATA[
    .str0 {stroke:#2B2A29;stroke-width:0;stroke-miterlimit:22.9256}
    .fil0 {fill:none;fill-rule:nonzero}
   ]]>
  </style>
 </defs>
 <g id="Слой_x0020_1">
  <metadata id="CorelCorpID_0Corel-Layer"/>
  <path class="fil0 str0" d="M1545 77c-16,2 -43,2 -60,0 -2,14 -8,43 -18,76 -18,-1 -36,-1 -53,0 3,-13 11,-49 25,-76 -29,3 -47,3 -63,0 0,29 -36,146 -55,195 21,-3 42,-3 68,0 -1,-22 9,-61 18,-94 17,-1 35,-2 52,-1 -12,37 -27,83 -35,97 17,-4 54,-6 68,-1 1,-23 35,-168 51,-196z"/>
  <path class="fil0 str0" d="M1306 106c-2,-24 -22,-33 -49,-31 -45,4 -96,41 -115,108 -19,68 25,97 65,97 78,0 116,-64 125,-107 9,-43 -26,-71 -69,-54 26,5 28,31 19,64 -9,31 -30,62 -55,61 -30,0 -36,-25 -28,-61 13,-56 59,-95 107,-78z"/>
  <path class="fil0 str0" d="M1062 172c0,0 0,0 0,0 0,0 0,0 0,0z"/>
  <path class="fil0 str0" d="M1139 132c-17,2 -53,3 -70,2 -1,9 -3,23 -7,38 0,0 0,0 0,0 -8,37 -28,71 -54,73 -34,1 -21,-41 -15,-64 8,-26 29,-77 66,-82 21,-3 30,7 37,16 5,-24 -8,-40 -44,-40 -46,0 -106,36 -125,108 -17,67 18,99 61,95 23,-2 40,-13 51,-28 -7,20 -13,37 -18,49 -24,49 -89,70 -112,21 -18,38 4,73 47,71 56,-2 95,-34 113,-66 36,-61 56,-163 69,-194z"/>
  <path class="fil0 str0" d="M912 80c-17,2 -47,0 -65,-2 -3,21 -22,73 -33,116 -18,43 -49,47 -44,9 3,-21 5,-14 22,-74 19,-70 -56,-73 -90,-56 31,9 35,31 25,63 -9,29 -21,56 -26,92 -4,28 18,49 52,42 20,-4 38,-14 53,-35 -1,12 0,21 3,26 16,21 56,15 85,-3 -46,-17 3,-147 17,-179z"/>
  <path class="fil0 str0" d="M693 79c-41,4 -70,4 -109,-2 -46,-7 -75,-3 -89,7 21,12 18,37 11,64 -8,33 -21,69 -42,125 24,-4 44,-4 73,0 -2,-41 18,-92 35,-160 1,-2 1,-4 1,-6 20,-2 31,-2 50,1 -17,72 -39,140 -54,167 19,-4 57,-7 74,-1 1,-26 35,-163 52,-195z"/>
  <path class="fil0 str0" d="M474 77c-17,2 -52,3 -70,2 -2,18 -13,64 -26,110 -18,52 -55,65 -49,24 3,-23 7,-23 24,-86 20,-73 -57,-77 -92,-58 31,9 35,32 25,66 -9,30 -22,59 -27,96 -4,29 18,52 53,44 18,-3 34,-12 48,-28 -7,21 -14,40 -18,50 -27,53 -93,74 -118,22 -20,40 4,78 49,76 58,-2 100,-36 120,-70 37,-65 68,-214 81,-247z"/>
  <path class="fil0 str0" d="M289 0c-19,3 -41,3 -63,0 -11,52 -66,115 -114,137 31,16 50,64 20,135 28,-3 48,-5 80,2 13,-66 -3,-127 -38,-139 49,-29 86,-56 114,-135z"/>
  <path class="fil0 str0" d="M82 2c-4,36 -64,238 -82,271 19,-4 61,-7 78,-2 1,-25 56,-239 72,-270 -18,2 -48,2 -68,0z"/>
  <path class="fil0 str0" d="M503 896c5,5 9,12 9,20 0,7 -3,15 -9,20 -5,5 -12,8 -22,8 -11,0 -18,-4 -22,-8 -5,-5 -9,-12 -9,-20 0,-8 4,-16 9,-21 4,-4 11,-8 22,-8 9,0 16,3 22,8zm-35 8c-2,2 -5,6 -5,12 0,5 2,9 5,12 4,3 8,4 12,4 6,0 10,-2 13,-5 2,-2 5,-6 5,-12 0,-6 -2,-10 -5,-12 -3,-3 -7,-5 -13,-5 -5,0 -9,2 -12,5z"/>
  <polygon class="fil0 str0" points="571,889 571,943 558,943 558,900 536,900 536,943 523,943 523,889 "/>
  <polygon class="fil0 str0" points="605,900 605,943 592,943 592,900 580,900 580,889 617,889 617,900 "/>
  <path class="fil0 str0" d="M740 884c5,0 10,1 15,4 5,4 6,9 6,13 0,7 -3,11 -5,13 -5,4 -10,5 -14,5l-8 0 0 19 -13 0 0 -54 20 0zm-7 25l5 0c2,0 5,0 7,-2 1,-1 2,-3 2,-5 0,-2 -1,-4 -2,-5 -2,-2 -5,-2 -7,-2l-4 0 0 15z"/>
  <path class="fil0 str0" d="M817 890c5,5 9,12 9,20 0,7 -3,15 -9,20 -5,5 -12,8 -22,8 -11,0 -18,-4 -22,-8 -5,-5 -9,-12 -9,-20 0,-8 4,-16 9,-21 4,-4 11,-8 22,-8 9,0 16,3 22,8zm-35 8c-2,2 -5,6 -5,12 0,5 2,9 5,12 4,3 8,4 12,4 6,0 10,-2 13,-5 2,-2 5,-6 5,-12 0,-6 -2,-10 -5,-12 -3,-3 -7,-5 -13,-5 -5,0 -9,2 -12,5z"/>
  <path class="fil0 str0" d="M833 888c3,-2 5,-3 8,-4 4,-1 7,-2 11,-2 5,0 11,1 15,5 3,3 4,7 4,11 0,3 -1,5 -2,7 -2,2 -4,3 -5,4 2,1 5,2 7,4 2,2 4,5 4,10 0,5 -2,8 -5,11 -5,5 -12,6 -17,6 -5,0 -9,0 -14,-2 -3,-1 -6,-3 -9,-6l7 -9c2,2 4,3 6,4 2,1 5,2 8,2 2,0 5,-1 7,-2 2,-1 3,-3 3,-5 0,-2 -1,-3 -2,-4 -2,-1 -4,-2 -11,-2l-2 0 0 -10 2 0c4,0 7,0 9,-2 1,-1 2,-2 2,-4 0,-2 -1,-3 -2,-4 -1,-1 -4,-1 -6,-1 -2,0 -5,0 -6,1 -2,1 -4,2 -5,3l-6 -10z"/>
  <polygon class="fil0 str0" points="896,904 918,904 918,884 931,884 931,938 918,938 918,915 896,915 896,938 883,938 883,884 896,884 "/>
  <polygon class="fil0 str0" points="955,884 955,919 982,883 993,883 993,938 980,938 980,902 954,938 942,938 942,884 "/>
  <polygon class="fil0 str0" points="1059,937 1059,950 1047,950 1047,938 1004,938 1004,884 1017,884 1017,927 1038,927 1038,884 1051,884 1051,927 1059,927 "/>
  <path class="fil0 str0" d="M1065 937l22 -54 12 0 22 54 -14 0 -4 -10 -21 0 -4 10 -13 0zm35 -20l-7 -18 -7 18 14 0z"/>
  <path class="fil0 str0" d="M697 630c-9,-2 -18,-4 -26,-5 0,3 0,6 0,9 0,1 0,3 -2,4 -2,2 -4,3 -6,5 -2,3 -5,4 -8,4 -2,0 -4,0 -6,2 -2,11 -2,18 -14,24 -16,8 -32,16 -49,23 -17,7 -21,13 -29,28 -2,-3 -3,-5 -2,-7 7,-21 16,-40 25,-60 -3,-2 -5,-3 -8,-5 -6,-4 -22,-10 -26,-15 -4,-5 -11,-10 -16,-15 -10,11 -36,32 -50,31 -7,-1 -15,-2 -22,-2 -3,9 -5,19 -10,27 -6,9 -23,32 -33,36 -10,4 -21,7 -33,7 -9,0 -23,1 -29,8 -9,11 -9,12 -22,21 -4,23 -21,6 -25,-12 5,-5 9,-10 11,-16 3,-6 4,-13 4,-19 8,-4 12,-3 19,-4 7,-1 12,-7 17,-12 6,-6 15,-10 23,-9 7,1 11,2 18,2 -3,-10 -3,-20 -5,-30 -11,1 -20,2 -30,-2 -29,-11 -29,-9 -32,-37 -2,-19 2,-34 6,-52 6,-23 -3,-24 -9,-38 -2,-6 -3,-12 -3,-19 1,-10 8,-8 13,-4 6,4 8,12 11,18 8,12 32,16 17,31 -4,4 -5,8 -3,13 3,6 5,13 4,19 -1,5 -1,10 -1,15 7,-5 12,-11 17,-18 18,-28 30,-21 57,-14 7,2 14,4 22,6 -6,-5 -13,-8 -19,-12 -10,-8 -19,-14 -13,-28 5,-11 19,0 23,-3 -3,-5 -21,-27 -6,-24 -7,-8 -20,-17 -6,-18 -7,-8 -19,-21 0,-18 -9,-13 -29,-28 -6,-29 -8,-11 -25,-27 -4,-32 -18,-9 -23,-17 -15,-40 16,20 27,18 52,28 24,10 102,53 53,84 -8,5 -21,11 -23,21 -5,20 0,22 14,34 -3,-10 -10,-25 2,-32 0,-7 5,-22 14,-16 14,-14 26,-17 43,-6 9,6 29,7 27,27 0,3 3,3 6,3 5,0 8,0 5,5 -7,13 -10,6 -6,15 -4,5 -6,10 -6,16 0,4 0,8 0,12 0,5 -2,9 -5,12 -4,3 -7,6 -10,10 -3,3 -7,5 -11,4 -4,-1 -7,-3 -11,-4 -7,-1 -6,6 0,7 12,3 23,6 35,9 4,1 8,2 12,3 4,-7 7,-15 11,-22 6,-11 11,-23 17,-34 2,-5 5,-10 7,-15 3,-7 6,-14 9,-21 5,-10 20,-11 16,-4 -2,4 -6,7 -6,9 -3,11 -3,23 -1,35 2,10 5,19 8,29 4,12 6,21 1,33 -2,4 0,7 3,10 8,2 15,3 23,5 0,-1 -1,-2 -1,-3 -1,-3 1,-5 4,-5 8,1 14,14 19,19 -3,4 -18,9 -24,6 -4,-2 0,-5 2,-8zm-95 -25c-14,-4 -28,-7 -41,-11 1,1 2,1 3,2 5,2 8,5 11,10 3,5 7,9 10,14 3,0 7,1 10,1 2,-5 5,-10 7,-15zm18 53c-11,2 -21,2 -32,2 -4,3 -8,12 -9,16 -1,2 -2,4 -2,6 3,-2 6,-4 10,-6 8,-3 16,-6 23,-11 4,-2 7,-5 10,-8zm14 -45c-7,-1 -14,-3 -22,-4 -2,5 -5,10 -7,15 2,1 4,1 6,2 7,2 20,7 22,-4 1,-3 1,-6 1,-9zm12 -78c-10,21 -20,42 -29,63 7,2 15,4 22,7 2,-3 5,-6 7,-9 3,-5 5,-19 4,-25 -4,-14 -3,-22 -3,-36z"/>
  <path class="fil0 str0" d="M924 610c9,-2 18,-4 26,-5 0,3 0,6 0,9 0,1 0,3 2,4 2,2 4,3 6,5 2,3 5,4 8,4 2,0 4,0 6,2 2,11 2,18 14,24 16,8 32,16 49,23 17,7 21,13 29,28 2,-3 3,-5 2,-7 -7,-21 -16,-40 -25,-60 3,-2 5,-3 8,-5 6,-4 22,-10 26,-15 4,-5 11,-10 16,-15 10,11 36,32 50,31 7,-1 15,-2 22,-2 3,9 5,19 10,27 6,9 23,32 33,36 10,4 21,7 33,7 9,0 23,1 29,8 9,11 9,12 22,21 4,23 21,6 25,-12 -5,-5 -9,-10 -11,-16 -3,-6 -4,-13 -4,-19 -8,-4 -12,-3 -19,-4 -7,-1 -12,-7 -17,-12 -6,-6 -15,-10 -23,-9 -7,1 -11,2 -18,2 3,-10 3,-20 5,-30 11,1 20,2 30,-2 29,-11 29,-9 32,-37 2,-19 -2,-34 -6,-52 -6,-23 3,-24 9,-38 2,-6 3,-12 3,-19 -1,-10 -8,-8 -13,-4 -6,4 -8,12 -11,18 -8,12 -32,16 -17,31 4,4 5,8 3,13 -3,6 -5,13 -4,19 1,5 1,10 1,15 -7,-5 -12,-11 -17,-18 -18,-28 -30,-21 -57,-14 -7,2 -14,4 -22,6 6,-5 13,-8 19,-12 10,-8 19,-14 13,-28 -5,-11 -19,0 -23,-3 3,-5 21,-27 6,-24 7,-8 20,-17 6,-18 7,-8 19,-21 0,-18 9,-13 29,-28 6,-29 8,-11 25,-27 4,-32 18,-9 23,-17 15,-40 -16,20 -27,18 -52,28 -24,10 -102,53 -53,84 8,5 21,11 23,21 5,20 0,22 -14,34 3,-10 10,-25 -2,-32 0,-7 -5,-22 -14,-16 -14,-14 -26,-17 -43,-6 -9,6 -29,7 -27,27 0,3 -3,3 -6,3 -5,0 -8,0 -5,5 7,13 10,6 6,15 4,5 6,10 6,16 0,4 0,8 0,12 0,5 2,9 5,12 4,3 7,6 10,10 3,3 7,5 11,4 4,-1 7,-3 11,-4 7,-1 6,6 0,7 -12,3 -23,6 -35,9 -4,1 -8,2 -12,3 -4,-7 -7,-15 -11,-22 -6,-11 -11,-23 -17,-34 -2,-5 -5,-10 -7,-15 -3,-7 -6,-14 -9,-21 -5,-10 -20,-11 -16,-4 2,4 6,7 6,9 3,11 3,23 1,35 -2,10 -5,19 -8,29 -4,12 -6,21 -1,33 2,4 0,7 -3,10 -8,2 -15,3 -23,5 0,-1 1,-2 1,-3 1,-3 -1,-5 -4,-5 -8,1 -14,14 -19,19 3,4 18,9 24,6 4,-2 0,-5 -2,-8zm95 -25c14,-4 28,-7 41,-11 -1,1 -2,1 -3,2 -5,2 -8,5 -11,10 -3,5 -7,9 -10,14 -3,0 -7,1 -10,1 -2,-5 -5,-10 -7,-15zm-18 53c11,2 21,2 32,2 4,3 8,12 9,16 1,2 2,4 2,6 -3,-2 -6,-4 -10,-6 -8,-3 -16,-6 -23,-11 -4,-2 -7,-5 -10,-8zm-14 -45c7,-1 14,-3 22,-4 2,5 5,10 7,15 -2,1 -4,1 -6,2 -7,2 -20,7 -22,-4 -1,-3 -1,-6 -1,-9zm-12 -78c10,21 20,42 29,63 -7,2 -15,4 -22,7 -2,-3 -5,-6 -7,-9 -3,-5 -5,-19 -4,-25 4,-14 3,-22 3,-36z"/>
 </g>
</svg>
