<?xml version="1.0" encoding="UTF-8"?>
<!DOCTYPE svg PUBLIC "-//W3C//DTD SVG 1.1//EN" "http://www.w3.org/Graphics/SVG/1.1/DTD/svg11.dtd">
<!-- Creator: CorelDRAW 2021 (64-Bit) -->
<svg xmlns="http://www.w3.org/2000/svg" xml:space="preserve" width="210mm" height="297mm" version="1.1" style="shape-rendering:geometricPrecision; text-rendering:geometricPrecision; image-rendering:optimizeQuality; fill-rule:evenodd; clip-rule:evenodd"
viewBox="0 0 210 297"
 xmlns:xlink="http://www.w3.org/1999/xlink"
 xmlns:xodm="http://www.corel.com/coreldraw/odm/2003">
 <defs>
  <style type="text/css">
   <![CDATA[
    .str1 {stroke:#2B2A29;stroke-width:0.2;stroke-miterlimit:22.9256}
    .str0 {stroke:#2B2A29;stroke-width:0.2;stroke-miterlimit:22.9256}
    .fil1 {fill:none}
    .fil0 {fill:#FEFEFE}
   ]]>
  </style>
 </defs>
 <g id="Слой_x0020_1">
  <metadata id="CorelCorpID_0Corel-Layer"/>
  <path class="fil0 str0" d="M-648.0512 -3060.4314l85.6993 -38.4858 0.485 -99.5637 52.5961 43.7694c8.9071,-8.1683 40.9819,-35.379 49.832,-42.9595 -0.1196,27.06 -0.3886,71.3601 -0.7311,97.5342l86.5584 40.4463c0.6695,-106.43 1.3144,-212.7682 1.4103,-319.2068 -31.4754,26.4501 -111.3782,94.329 -139.2438,117.9243l-136.0697 -118.4678c-0.0776,13.0599 -0.6536,296.3404 -0.5365,319.0094z"/>
  <path class="fil0 str0" d="M-1278.6329 -3061.3769c106.9874,-45.1058 86.2064,-27.1435 87.0472,-97.3643 0.4855,-40.5977 -6.7162,-26.8722 19.153,-48.9625l73.6636 118.3381c8.8795,14.5478 6.5295,11.789 21.3197,12.1964 22.1563,0.1458 73.2915,0.6427 89.3663,0.1038 -6.6563,-14.0222 -19.3416,-34.0606 -27.9408,-47.5517l-81.7616 -131.0113 70.5916 -47.3829 -30.2643 -71.1698 -133.4813 89.4261c0.3174,-12.2485 0.3165,-31.0475 -0.0862,-44.6331 -0.4692,-15.8146 -12.2071,-15.373 -23.6592,-20.6244l-64.0548 -27.9501 0.1068 316.5857z"/>
  <path class="fil0 str0" d="M-319.2488 -2994.1816c0.3278,29.4096 -1.5839,163.9592 -2.0533,205.264l-37.6943 -0.5245c0.4708,-25.3814 0.5691,-168.3811 0.1073,-200.9106l-93.6914 -41.9026c-0.0014,77.0548 0.0029,160.2904 0.0188,242.623l-39.5658 0.3216c-0.3783,-52.3736 -1.6455,-146.2285 -0.4343,-201.7673l-90.0944 -42.6802c-0.1738,78.4671 0.4445,233.7754 1.0324,316.7278 103.4255,-0.181 231.4489,0.3665 351.2355,0.0303 0.2001,-20.9337 0.7179,-58.4767 0.5614,-78.7994l-0.215 -237.6629c-15.5779,7.5958 -67.0801,29.6932 -89.2069,39.2808z"/>
  <path class="fil0 str0" d="M-98.7421 -2942.4408l-0.3463 -50.7397 -83.2741 -37.7162 0.7505 315.3503c8.5683,-3.8416 74.7642,-35.7651 83.5893,-40.0152l-0.1023 -101.8487 86.6839 -46.4461 1.4648 148.4829 83.3842 39.585 -0.7703 -316.4443c-17.4817,8.5647 -159.577,83.5317 -171.3797,89.792z"/>
  <path class="fil0 str0" d="M-1251.8943 -2717.0391c13.1,0.2727 268.5451,1.011 275.416,1.0551l-40.1534 -77.0417c-46.7719,-0.0772 -95.0316,-0.2609 -139.1183,-0.0498 -0.417,-20.7746 -4.8983,-128.5021 5.0442,-144.0864 12.1907,-19.1094 29.2376,-16.266 42.2009,-16.0364 27.7857,0.4955 53.0879,0.5507 80.9858,0.6438 16.3954,0.054 12.1046,-0.3602 27.7735,-30.9203 7.8084,-15.2295 16.1119,-30.7723 24.3549,-46.4551 -51.1351,-2.315 -203.8847,-10.9065 -246.5923,14.619 -38.6007,32.1735 -30.2773,86.5391 -30.7151,145.278l0.8038 152.9938z"/>
  <path class="fil0 str0" d="M-712.5991 -3032.5518l-66.6881 132.5804c-9.9879,-14.592 -23.7232,-45.7839 -32.995,-64.3791 -8.8476,-17.7461 -26.0693,-53.0818 -35.0157,-67.4623l-106.9313 -0.6185c4.8411,19.575 89.9146,183.4317 106.6129,215.0401 10.3908,18.0202 9.9369,9.3395 24.3705,13.0676l-51.1238 88.5481c30.4717,0.7123 60.0473,-0.3673 94.1752,0.3003l46.7132 -90.3787c25.9144,-0.5358 45.1456,-0.4537 69.4887,-1.0323l-38.956 -58.562 38.8176 -81.1767c13.0864,-26.1029 29.3843,-59.0362 42.1958,-85.6025 -29.1379,-0.6847 -59.313,-0.2464 -90.664,-0.3244z"/>
  <path class="fil0 str0" d="M-868.4845 -3287.7514l-0.3463 -50.7397 -83.2741 -37.7162 0.7505 315.3503c8.5683,-3.8416 74.7642,-35.7651 83.5893,-40.0152l-0.1023 -101.8487 86.6839 -46.4461 1.4648 148.4829 83.3842 39.585 -0.7703 -316.4443c-17.4817,8.5647 -159.577,83.5317 -171.3797,89.792z"/>
  <path class="fil0 str0" d="M24.3133 -3713.7223c181.2318,0.006 328.2261,146.9281 328.321,328.1592 0.0951,181.2317 -146.7453,328.1442 -327.977,328.1383 -181.2311,-0.006 -328.2255,-146.9282 -328.3205,-328.1599 -0.0949,-181.231 146.7453,-328.1435 327.9765,-328.1376z"/>
  <path class="fil1 str1" d="M-305.2165 -3898.3492l0.0265 -804.8986c0.0003,-9.9704 8.1579,-18.1321 18.1283,-18.1374l61.6374 -0.0322c9.9702,-0.0053 18.1275,8.1478 18.1272,18.1184l-0.0265 804.8985c-0.0003,9.9704 -8.158,18.1322 -18.1283,18.1373l-61.6374 0.0324c-9.9704,0.0051 -18.1275,-8.148 -18.1272,-18.1184z"/>
  <path class="fil1 str0" d="M-937.5952 -4716.1509l546.6538 -0.2866c7.3596,-0.0039 13.3841,6.0144 13.3881,13.3741l0.3211 612.6836c0.0038,7.3596 -6.0145,13.3841 -13.3741,13.388l-546.6538 0.2866c-7.3597,0.0038 -13.3842,-6.0145 -13.388,-13.374l-0.3212 -612.6837c-0.0039,-7.3597 6.0144,-13.3842 13.3741,-13.388z"/>
 </g>
</svg>
