<?xml version="1.0" encoding="UTF-8"?>
<!DOCTYPE svg PUBLIC "-//W3C//DTD SVG 1.1//EN" "http://www.w3.org/Graphics/SVG/1.1/DTD/svg11.dtd">
<!-- Creator: CorelDRAW 2021 (64-Bit) -->
<svg xmlns="http://www.w3.org/2000/svg" xml:space="preserve" width="1500.05mm" height="239.683mm" version="1.1" style="shape-rendering:geometricPrecision; text-rendering:geometricPrecision; image-rendering:optimizeQuality; fill-rule:evenodd; clip-rule:evenodd"
viewBox="0 0 1519 243"
 xmlns:xlink="http://www.w3.org/1999/xlink"
 xmlns:xodm="http://www.corel.com/coreldraw/odm/2003">
 <defs>
  <style type="text/css">
   <![CDATA[
    .str0 {stroke:#2B2A29;stroke-width:0;stroke-miterlimit:22.9256}
    .fil0 {fill:#FEFEFE}
    .fil1 {fill:#FEFEFE;fill-rule:nonzero}
   ]]>
  </style>
 </defs>
 <g id="Слой_x0020_1">
  <metadata id="CorelCorpID_0Corel-Layer"/>
  <path class="fil0 str0" d="M125 0c67,2 120,58 118,125 -2,67 -58,120 -125,118 -67,-2 -120,-58 -118,-125 2,-67 58,-120 125,-118z"/>
  <path class="fil1 str0" d="M434 147l11 11c4,-10 5,-21 5,-35 0,-17 -4,-32 -11,-44 -8,-13 -18,-19 -32,-19 -14,0 -24,7 -32,20 -7,12 -10,26 -10,43 0,18 4,32 11,44 8,13 18,19 32,19 4,0 9,-1 14,-2l-8 -10c-3,-3 -4,-7 -4,-11 0,-6 1,-10 4,-14 3,-4 6,-6 11,-6 3,0 6,1 9,3zm27 77l-13 -13c-12,8 -25,12 -39,13 -23,0 -42,-10 -56,-30 -14,-19 -21,-42 -21,-70 0,-29 7,-53 21,-72 14,-19 33,-29 55,-29 22,0 41,10 56,29 14,19 22,43 22,71 0,25 -5,46 -14,64l13 13c5,5 8,11 8,17 0,5 -1,9 -5,12 -3,3 -7,5 -11,5 -4,0 -9,-3 -15,-9z"/>
  <path class="fil1 str0" d="M301 15c5,0 9,2 13,6 4,4 5,9 5,15 0,6 -2,12 -5,16 -4,4 -8,7 -13,7 -5,0 -9,-2 -13,-7 -4,-5 -5,-10 -6,-16 0,-6 2,-11 5,-15 4,-4 8,-7 13,-7z"/>
  <path class="fil1 str0" d="M287 201l-1 -105c0,-6 1,-11 4,-16 3,-4 7,-7 12,-7 5,0 9,2 12,6 3,4 4,9 4,16l1 105c0,6 -1,12 -4,16 -3,4 -7,7 -12,7 -5,0 -9,-2 -12,-6 -3,-4 -4,-9 -4,-15z"/>
  <path class="fil1 str0" d="M1438 59l0 49 23 0c6,0 11,-2 15,-7 4,-4 6,-10 5,-18 0,-16 -7,-24 -21,-24l-23 0zm-32 138l-1 -154c0,-14 6,-22 17,-22l39 0c37,0 56,20 56,61 0,14 -4,26 -12,36 -7,8 -17,14 -29,17l39 49c3,4 4,8 4,12 0,6 -2,11 -5,15 -3,4 -7,6 -12,6 -5,0 -10,-2 -13,-7l-50 -73 0 0 0 60c0,6 -1,11 -4,15 -3,4 -7,6 -12,6 -5,0 -9,-2 -12,-6 -3,-4 -5,-9 -5,-15z"/>
  <path class="fil1 str0" d="M1302 197l-1 -151c0,-16 6,-24 17,-24l55 -1c5,0 8,2 11,5 3,3 5,8 5,14 0,5 -1,10 -4,14 -3,4 -7,5 -11,5l-39 0 0 40 37 0c5,0 9,2 12,5 3,3 5,8 5,14 0,6 -1,10 -5,14 -3,4 -7,5 -12,5l-37 0 0 42 41 0c5,0 9,2 12,5 3,3 5,8 5,14 0,6 -1,10 -4,14 -3,4 -7,5 -11,5l-58 1c-5,0 -9,-2 -12,-6 -3,-4 -5,-9 -5,-15z"/>
  <path class="fil1 str0" d="M996 195l44 -150c4,-15 12,-23 24,-23 11,0 20,7 24,22l45 149c1,4 2,7 2,10 0,5 -1,10 -4,13 -3,3 -7,5 -11,5 -8,0 -14,-5 -17,-14l-7 -26 -62 1 -7 26c-2,10 -8,15 -16,15 -5,0 -8,-2 -12,-5 -3,-4 -5,-8 -5,-14 0,-1 0,-4 1,-9zm68 -130l-21 80 42 -1 -21 -79 0 0z"/>
  <path class="fil1 str0" d="M1230 103l38 0c13,0 20,8 20,26 0,19 -3,36 -10,51 -7,16 -18,28 -32,35 -9,5 -20,7 -30,8 -23,0 -42,-10 -56,-30 -14,-19 -21,-42 -21,-70 0,-29 7,-53 21,-72 14,-19 33,-29 55,-29 12,0 25,3 37,8 16,7 24,17 25,30 0,5 -1,10 -4,13 -3,4 -6,6 -10,6 -4,0 -7,-1 -10,-3l-9 -7c-8,-7 -18,-10 -29,-10 -14,0 -24,7 -32,20 -7,12 -10,26 -10,43 0,18 4,32 11,44 8,13 18,19 32,19 11,0 20,-4 27,-12 7,-8 11,-19 11,-32l-23 0c-5,0 -8,-2 -11,-5 -3,-4 -5,-8 -5,-14 0,-6 1,-10 4,-14 3,-3 7,-5 11,-5z"/>
  <path class="fil1 str0" d="M850 203l-1 -156c0,-14 5,-21 17,-21 3,0 5,1 8,3 3,2 5,4 6,6l72 115 0 0 -1 -104c0,-14 5,-21 17,-21 11,0 17,7 17,21l1 156c0,6 -1,11 -4,15 -3,4 -7,6 -12,6 -2,0 -5,-1 -8,-3 -3,-2 -5,-4 -7,-6l-72 -114 0 0 1 102c0,6 -1,11 -4,15 -3,4 -7,6 -12,6 -5,0 -9,-2 -12,-6 -3,-4 -5,-9 -5,-15z"/>
  <path class="fil1 str0" d="M770 68l-21 80 42 -1 -21 -79 0 0zm-68 130l44 -150c4,-15 12,-23 24,-23 11,0 20,7 24,22l45 149c1,4 2,7 2,10 0,5 -1,10 -4,13 -3,3 -7,5 -11,5 -8,0 -14,-5 -17,-14l-7 -26 -62 1 -7 26c-2,10 -8,15 -16,15 -5,0 -8,-2 -12,-5 -3,-4 -5,-8 -5,-14 0,-1 0,-4 1,-9z"/>
  <path class="fil1 str0" d="M511 204l20 -153c1,-6 3,-11 8,-15 4,-4 9,-6 14,-6 5,0 10,2 14,5 4,4 7,8 9,14l27 108 0 0 26 -109c1,-6 4,-11 8,-15 4,-4 9,-5 14,-5 5,0 10,2 14,6 4,4 7,9 8,15l22 153c0,1 0,2 0,2l0 2c0,6 -1,11 -4,14 -3,4 -7,6 -12,6 -10,0 -16,-6 -18,-19l-14 -112 -1 0 -26 115c-2,11 -8,16 -18,16 -9,0 -15,-5 -18,-16l-28 -115 0 0 -12 112c-1,13 -7,19 -17,19 -5,0 -9,-2 -12,-5 -3,-4 -5,-8 -5,-14l0 -2c0,-1 0,-1 0,-2z"/>
 </g>
</svg>
